/* XPM */
static char *desktop_wallpaper_pac_man_party1709575783[] = {
/* columns rows colors chars-per-pixel */
"50 50 246 2 ",
"   c #010101",
".  c #0B0102",
"X  c #010901",
"o  c #0B0902",
"O  c #03030A",
"+  c #0C020A",
"@  c #050C0A",
"#  c #0B0C0A",
"$  c #130101",
"%  c #1B0101",
"&  c #120D02",
"*  c #1A0C02",
"=  c #12010B",
"-  c #1C010B",
";  c #130C0D",
":  c #1E0B0A",
">  c #011402",
",  c #001B01",
"<  c #04160B",
"1  c #111100",
"2  c #1A1505",
"3  c #030113",
"4  c #080416",
"5  c #1B0311",
"6  c #160D18",
"7  c #001513",
"8  c #171C1B",
"9  c #1C1919",
"0  c #230101",
"q  c #2C0001",
"w  c #250C00",
"e  c #270907",
"r  c #330200",
"t  c #3B0102",
"y  c #380A0A",
"u  c #3C1505",
"i  c #27031A",
"p  c #370B14",
"a  c #221C1D",
"s  c #281716",
"d  c #39181C",
"f  c #032603",
"g  c #1C2403",
"h  c #003401",
"j  c #003B01",
"k  c #002C1B",
"l  c #282A02",
"z  c #392804",
"x  c #2A3000",
"c  c #3B2D0F",
"v  c #151923",
"b  c #001B20",
"n  c #281A21",
"m  c #360825",
"M  c #002926",
"N  c #053827",
"B  c #133430",
"V  c #2A2C28",
"C  c #480200",
"Z  c #420A09",
"A  c #590103",
"S  c #450C19",
"D  c #45151D",
"F  c #501F10",
"G  c #6E0D0D",
"H  c #482800",
"J  c #572D00",
"K  c #453500",
"L  c #583800",
"P  c #492A15",
"I  c #693A00",
"U  c #481925",
"Y  c #521734",
"T  c #502B30",
"R  c #004604",
"E  c #055800",
"W  c #015218",
"Q  c #0D4F13",
"!  c #076219",
"~  c #067205",
"^  c #377008",
"/  c #00513C",
"(  c #334736",
")  c #087136",
"_  c #355E1F",
"`  c #484A00",
"'  c #704809",
"]  c #5E6900",
"[  c #766A11",
"{  c #485232",
"}  c #70772A",
"|  c #372845",
" . c #423546",
".. c #4C3C61",
"X. c #034644",
"o. c #03584A",
"O. c #015F54",
"+. c #12595F",
"@. c #007059",
"#. c #2B6E4C",
"$. c #077667",
"%. c #136775",
"&. c #256E76",
"*. c #891307",
"=. c #880719",
"-. c #921515",
";. c #B50818",
":. c #B0190B",
">. c #961D22",
",. c #B01826",
"<. c #8A2C27",
"1. c #B22A2B",
"2. c #B12317",
"3. c #C70001",
"4. c #DA0102",
"5. c #D51A00",
"6. c #CE1416",
"7. c #EC0200",
"8. c #E70506",
"9. c #EC1704",
"0. c #F80715",
"q. c #EB0C12",
"w. c #DC2103",
"e. c #CE192D",
"r. c #F90A24",
"t. c #877500",
"y. c #8C6F30",
"u. c #DB1E44",
"i. c #039204",
"p. c #07A419",
"a. c #319B3F",
"s. c #35BA35",
"d. c #30AB2C",
"f. c #1FA326",
"g. c #6D8710",
"h. c #7E8935",
"j. c #47AB3B",
"k. c #14C800",
"l. c #03D506",
"z. c #13D30D",
"x. c #23D010",
"c. c #07E605",
"v. c #02FF02",
"b. c #0AFC02",
"n. c #04FE0B",
"m. c #09FB06",
"M. c #1AE917",
"N. c #06FC13",
"B. c #12F00A",
"V. c #29E51F",
"C. c #32C826",
"Z. c #25D429",
"A. c #2CCD35",
"S. c #13EF2F",
"D. c #24E627",
"F. c #2EEA30",
"G. c #0FD52A",
"H. c #0E8372",
"J. c #2BB546",
"K. c #7F8849",
"L. c #2BD745",
"P. c #37D151",
"I. c #8F950C",
"U. c #AD9900",
"Y. c #B2B50D",
"T. c #85872C",
"R. c #9A9E3E",
"E. c #87932C",
"W. c #97A138",
"Q. c #A4AC37",
"!. c #A09823",
"~. c #D1BD00",
"^. c #C6B831",
"/. c #BBCC33",
"(. c #D9D605",
"). c #D2D00E",
"_. c #E3DB16",
"`. c #DAEB0A",
"'. c #E9FD02",
"]. c #F2FD02",
"[. c #FBFE02",
"{. c #FAF909",
"}. c #E8F617",
"|. c #FDFD14",
" X c #FEFF1B",
".X c #F5F915",
"XX c #ECE911",
"oX c #CAC82A",
"OX c #D3D229",
"+X c #F1D027",
"@X c #DFF93E",
"#X c #ECE529",
"$X c #FDEA2D",
"%X c #ECF82B",
"&X c #F9F92B",
"*X c #FAE93A",
"=X c #EAF437",
"-X c #FBF836",
";X c #EDE63D",
":X c #95A054",
">X c #A59957",
",X c #D8BE45",
"<X c #CEBB79",
"1X c #C5D349",
"2X c #E6DC46",
"3X c #F7E847",
"4X c #FBFA45",
"5X c #F5F857",
"6X c #D0CA6A",
"7X c #DEE16C",
"8X c #EEFE62",
"9X c #F5F775",
"0X c #337C86",
"qX c #14878C",
"wX c #339890",
"eX c #04A894",
"rX c #31A595",
"tX c #0EBDB3",
"yX c #2BA7A4",
"uX c #20C198",
"iX c #0EC5AC",
"pX c #2DCFB7",
"aX c #0FBCC2",
"sX c #09C7CE",
"dX c #2CD6C2",
"fX c #05E3DC",
"gX c #28E8D4",
"hX c #00DAEC",
"jX c #00EAED",
"kX c #03EDFD",
"lX c #18E7F6",
"zX c #0CFCFC",
"xX c #02F9F7",
"cX c #13FDFF",
"vX c #1BFFF9",
"bX c #14F0E8",
"nX c #39FFE9",
"mX c #28FAFC",
"MX c #37F7FC",
"NX c #2DEDE5",
"BX c #40EDDA",
"VX c #41FDFC",
"CX c #4EF8EA",
"ZX c #55D9E6",
"AX c #5BA69F",
"SX c #FFF98F",
/* pixels */
"                                                                                                    ",
"                                                                                                    ",
"                                                                                                    ",
"                                                                                                    ",
"                                                                                                    ",
"                                                                                                    ",
"                                                                                                    ",
"                                                                                                    ",
". . .   + .     +     O +     + + 4 + + 5 + + 6       < @     o X       3 4 3 3 O O   @ X 9       O ",
"                                O     O O           X       . .         3 3 4 3       #   4   O   O ",
"@ X       X X @ X   @ X X X X X > X X > X X X X   X . . . . . . O O + O O         O   O   O O 6     ",
"  . . . .   . .   o @ X     X X X X X X     . . . = $ .   + O   3 3 O       X . o o   O O O         ",
"$ $ % 0 % % % % % $ $ . .     & $ % $ ; o   . . $ $ - . . X X O 3 3 O       .     + O 6 ; X o   g   ",
"% q p D D D S S r % $ % % . . ;   v B V B ; O @ . $ $ .   X > < 4 4     o o . . O 6 O . 1 1 } } {   ",
"0 p D U D D D U d % $ d V o   < @ &.wXwXrXO.7 M v O $ $ X X , N 8 + . . * 2 $ O 4 | 6 . > l 1X9X:X  ",
". $ % % % % % 0 U % $ { { < X < N tXBXCXCXeX/ o.B 4 . = o X 7 ( 9 ; . o g s 6 4 4 .. .& < g OX8X:X  ",
"$ % 6 =     . $ e s % y.>XX   7 qXlXMXlXvXgX%./ a.f < 0 t e h P.h X . 0 G <.% o X { >X$ a . =X-XW.X ",
"$ % 5 + . . . . - e w >X6X2   b aXcXvXfXbXnXqXo.J.E X . 0 o ! P.h X . 0 G <.q o   V <Xz o l =X&XW.X ",
"$ e : . . & : $ - 0 H 6X7X` X X.bXzXxXfXbXnXqX/ L.p., X o f f.P.j X $ t >.1.Z %   l SX[ . z #X%XW.X ",
"$ : : . & s s - e w ` 9X8Xg.X +.NXxXxXxXnXpX@.W L.Z.j > , E L.L.j X % A 1.e.G e $ z SX^.& x %X%XW.X ",
". : : . . s d = p y [ 4X=XY.@ &.MXjXcXmXpX$.k Q F.V.~ , f f.F.C.j . 0 G e.e.=.y 0 z 4X3X` 2 %X=XW.X ",
"$ : * . $ % i - p F U.&X`./., &.MXjXcXNXqX< o Q V.M.d.j E A.V.C.h . q *.6.q.,.A q z #X-XI.x *X-XR.X ",
"$ : * . . $ i i S J _.{.'.@Xg &.MXjXzXsXX.X X E V.b.Z.i.i.D.N.V.j o r :.q.q.u.G r K &X.X1X] #X-XR.X ",
"= % * $ $ = m Y S I $X[.'.5X` 0XMXjXcXtX/ o X E B.v.Z.Z.G.S.n.M.R $ t 2.q.8.u.G r z 4X`.8XI._.-XR.X ",
"; % i $ 0 Z S Y C y.-X].].%Xh.#.gXxXcXlXdXO., ! M.b.v.v.v.v.S.A.R . *.w.8.0.r.;.t ` =X.X'.'.(.3XT.X ",
". $ s $ % u Z Z C y.-X[.].%XQ.a.CXzXkXsXtXrX#.! D.n.v.v.v.b.B.A.j % *.w.7.r.r.;.t K #X].'.].{.4XT.X ",
"  o s . $ d y q H 1X-X[.].}./.#.dXcXcXlXiXyXAX) D.b.n.v.b.b.M.s.f r :.5.7.0.0.6.C K $X|.].].{.#XT.X ",
"  # 9 . $ U w % ' 3X&X[.].}.oX^ iXzXzXvXjXeXrX) S.n.N.n.b.B.M.s.f C :.9.7.0.q.6.A J $X X[.{..X#XT.X ",
"X # 2 o $ d w % t.$X|.]..X%XOX^ uXmXhXkXmXiX$.! S.N.N.N.b.m.l.s.2 G 5.9.7.0.8.6.G J +X[.'.{.&X3XT.X ",
"$ $ w % % d 0 e ^.$X X|.-X4XOXg.) NXMXmXnXiXO.R F.N.N.B.b.c.l.d.c =.5.9.8.0.4.6.G I *X X.X}.).Y.T.  ",
"0 % Z Z m U y u *XXX.XXX4X2XU.!.f 0XZXCXpXH.M W L.B.z.B.c.l.l.a.P >.w.8.8.9.4.;.G <.3X$X%X`.Y.I.h.  ",
"r q F T T Y Z L ^.~.).~.OXQ.I.Q.( b %.yX@.k   Q C.k.k.k.x.k.z.j.P -.5.3.4.8.:.:.G I +X~.).).Y.1XK.X ",
"% % e s s s e e s s s s 9 a n V # @ @ X   @ @ # 8 8 8 8 8 8 8 8 ; ; ; ; ; ; ; ; 9 n n n a a a a # . ",
". . $ $ $ . . . .     . . X o & @           X O   X O     X       .       .   .   . o O . O .   @ O ",
". . .   .   .               .   X             X     X             X   .             .       X     . ",
"                    X       X X                   X     @       . . O   O   . .       . +           ",
"  X     O       O               O .                         .                             X         ",
"O             O   O   O       O       . .   .   .   .                                             X ",
"O O O O O O O O O O O     O + +   . .         .   .   . .   .     X       X           X X           ",
"    O   O O         . . + . . + .     . .   .     . +   .     .                                     ",
"                                                                                                    ",
"                                                                                                    ",
"                                                                                                    ",
"                                                                                                    ",
"                                                                                                    ",
"                                                                                                    ",
"                                                                                                    ",
"                                                                                                    ",
"                                                                                                    ",
"                                                                                                    "
};
