/* XPM */
static char *HD_wallpaper_pac_man_6_plus__1_1709575783[] = {
/* columns rows colors chars-per-pixel */
"50 50 256 2 ",
"   c #010202",
".  c #0B0202",
"X  c #020B01",
"o  c #0B0B03",
"O  c #03020B",
"+  c #0A030C",
"@  c #030A0C",
"#  c #0A0B0C",
"$  c #130402",
"%  c #130D01",
"&  c #1A0B01",
"*  c #15090A",
"=  c #031104",
"-  c #0B1302",
";  c #081508",
":  c #111301",
">  c #1C1401",
",  c #1C1C02",
"<  c #14130C",
"1  c #1A1707",
"2  c #020113",
"3  c #0A0414",
"4  c #020A13",
"5  c #0B0B14",
"6  c #03021B",
"7  c #0A041C",
"8  c #030A1C",
"9  c #0C0A1B",
"0  c #130A16",
"q  c #0B1416",
"w  c #131314",
"e  c #181617",
"r  c #220902",
"t  c #230B08",
"y  c #231401",
"u  c #201D00",
"i  c #291907",
"p  c #331A03",
"a  c #261712",
"s  c #192601",
"d  c #0D200C",
"f  c #252501",
"g  c #2C2300",
"h  c #2B2A01",
"j  c #27250C",
"k  c #332201",
"l  c #342B00",
"z  c #3D2B00",
"x  c #31250D",
"c  c #3A3202",
"v  c #383903",
"b  c #282917",
"n  c #3C3818",
"m  c #2B3100",
"M  c #030322",
"N  c #0A0324",
"B  c #0B0A23",
"V  c #04042A",
"C  c #0B062A",
"Z  c #050A28",
"A  c #160B26",
"S  c #071425",
"D  c #1A1725",
"F  c #060433",
"G  c #0C1435",
"H  c #171536",
"J  c #3C3F2E",
"K  c #13212A",
"L  c #453805",
"P  c #543B05",
"I  c #44341A",
"U  c #4B2F08",
"Y  c #423730",
"T  c #3E4200",
"R  c #464600",
"E  c #594804",
"W  c #495101",
"Q  c #5C5801",
"!  c #574B18",
"~  c #5C5B1A",
"^  c #454212",
"/  c #665806",
"(  c #664B16",
")  c #665519",
"_  c #75540D",
"`  c #5F6705",
"'  c #6C6407",
"]  c #6A6618",
"[  c #776E0B",
"{  c #555430",
"}  c #665427",
"|  c #5E6821",
" . c #686828",
".. c #796921",
"X. c #787838",
"o. c #736C30",
"O. c #0F0141",
"+. c #7F6C4C",
"@. c #825E14",
"#. c #836B0B",
"$. c #887B08",
"%. c #847818",
"&. c #846610",
"*. c #847426",
"=. c #887832",
"-. c #988A19",
";. c #999519",
":. c #91890B",
">. c #A99616",
",. c #B0AB0D",
"<. c #988B33",
"1. c #92922A",
"2. c #A38927",
"3. c #A69626",
"4. c #B19F28",
"5. c #AB9638",
"6. c #AE8C33",
"7. c #A3A124",
"8. c #B8A829",
"9. c #BAB928",
"0. c #A4A438",
"q. c #B7A935",
"w. c #BAB737",
"e. c #ABB531",
"r. c #97A215",
"t. c #C9BC0E",
"y. c #D7BA06",
"u. c #CCB619",
"i. c #D7BA15",
"p. c #C3AA1C",
"a. c #E9BD08",
"s. c #E1BE1A",
"d. c #CAB525",
"f. c #D8B927",
"g. c #C6B535",
"h. c #CBAE2D",
"j. c #E4BD27",
"k. c #C89C2F",
"l. c #B9C436",
"z. c #DBCB00",
"x. c #D2C71C",
"c. c #DBD50D",
"v. c #E4C404",
"b. c #ECC904",
"n. c #EAC709",
"m. c #F2CB03",
"M. c #F3CB0C",
"N. c #FDCE0C",
"B. c #F9C707",
"V. c #EBDC01",
"C. c #E6DA06",
"Z. c #FBD403",
"A. c #F2DE02",
"S. c #FDDE03",
"D. c #FCD40C",
"F. c #FDDC0B",
"G. c #F3D908",
"H. c #E8C516",
"J. c #F7CC19",
"K. c #E9D619",
"L. c #FED413",
"P. c #FEDC12",
"I. c #FFD21B",
"U. c #FEDE19",
"Y. c #F3D913",
"T. c #ECE503",
"R. c #F4E402",
"E. c #FCE404",
"W. c #F5EC03",
"Q. c #FBEB03",
"!. c #F4E40C",
"~. c #FDE30C",
"^. c #F5EC0B",
"/. c #FBEC0C",
"(. c #FDF302",
"). c #FDF20C",
"_. c #F6F408",
"`. c #ECE818",
"'. c #F4E613",
"]. c #FDE412",
"[. c #F5EB14",
"{. c #FCEC13",
"}. c #FCE51D",
"|. c #F5EC1B",
" X c #FCED1B",
".X c #F3E218",
"XX c #F5F115",
"oX c #FCF313",
"OX c #FFFB14",
"+X c #FDF31B",
"@X c #FDFA1A",
"#X c #F4F11B",
"$X c #DCC528",
"%X c #DCCA37",
"&X c #DAD53C",
"*X c #D2CF28",
"=X c #E8C322",
"-X c #EBDB26",
";X c #F3D825",
":X c #E9C638",
">X c #E7D839",
",X c #F5DA39",
"<X c #F0CB24",
"1X c #EAE625",
"2X c #F5E524",
"3X c #F5EC25",
"4X c #FCEC25",
"5X c #FDE62C",
"6X c #F4EC2C",
"7X c #FDED2B",
"8X c #F7E428",
"9X c #FFF224",
"0X c #FEFA24",
"qX c #FDF22B",
"wX c #F6F527",
"eX c #EBE432",
"rX c #E7E737",
"tX c #FCEC34",
"yX c #FDED3B",
"uX c #F5E839",
"iX c #FEF434",
"pX c #FFFB34",
"aX c #FFF43C",
"sX c #FEFB3C",
"dX c #F3F639",
"fX c #ECF53A",
"gX c #DFE72F",
"hX c #978F4B",
"jX c #AA9C41",
"kX c #B7AB43",
"lX c #B2B04F",
"zX c #C6B744",
"xX c #CEB248",
"cX c #BCC752",
"vX c #C9C94A",
"bX c #DED849",
"nX c #D5CA51",
"mX c #E6DC4B",
"MX c #E5D656",
"NX c #F4DF5F",
"BX c #E9E848",
"VX c #FEEC43",
"CX c #F5EA47",
"ZX c #FDF244",
"AX c #FEFD45",
"SX c #FDF44C",
"DX c #F7FD4B",
"FX c #EDE255",
"GX c #FCF554",
"HX c #FBFB59",
"JX c #F9EE5E",
"KX c #D7C37C",
"LX c #E9DD67",
"PX c #FAF566",
"IX c #F5ED6D",
"UX c #D8E655",
/* pixels */
"2 O + O O O X O o o X           o o O X     O O 3 3 3 2 2 2 B 9     @ O O O O     X         O O     ",
"+ O O O O O . X O O   O O # w w               X     O       . X X X X @ O 2 2 O       X     O 2     ",
"  .     X . O O # O O O O # # w   @   @ @ @ @ ;   X X - - - = - X X X @ O O O O           2 6 2     ",
"X X .   . O O O 3 O O O O O + O M M M 2 2 O O O   O @ @ 4 @ @ @     X   O O O O     X   O 2 6 2 O   ",
". X X O O O O 2 O 2 O 5 # # # 9 C F F C V M 6 2 M 6 6 M Z Z C 7   X O O O 2 O O         O 2 6 2     ",
"  O . O O O 2 2 9 3 +     . X X O O @ @ 5 # # @   O O 2 N C C C 4 @ 5 9 6 6 6 8   @       O 2 O     ",
"  O O 2 6 3 3 3 D 9 O     - s s s f m v R R T v m f f , 1 % . O 5 9 B B Z M 8 7 O   X X X   O O     ",
"2 2 2 2 6 6 6 6 9 3 X X 1 n {  .1.r.e.l.l.l.l.e.e.0.1.X. .^ g % # 7 C Z V V M 7               O     ",
"N 3 O O   . o e . a n ( [ >.t.c.c.[.+X@XOXOXoX^.|.6XeX%Xg.3.#.' L f o . 5 A C 3 5 O       . O       ",
"6 4 O   o < % . p ! hXxXMXCXeX2X3XwX9X+XXX).).).oX'..X6XZXZX>X%X;.' c > * 9 B C 2           .       ",
"; X     o % y k <.q.vXCXSXsXiXiXtX8X.X|.^.T.).OXoXT.V.^.OX).Q.^.>Xd.-./ l & * D O O O   X X X       ",
"s X   X X % ! jXMXeX.X].!.].5XtX5X8X.X{.[.[.#XwXpXtX6X9XoXR.R.Q.{.8X>X8.[ p $ * O 2 O   X X X X     ",
"s ; X - h ~ lXIX-X'.(.(.).{.5X5X5X4X|. X0XpXfX&X8.8.4.g.>XuX4X{.A.!.4X,Xg.[ c % . O 2 2 O X X X     ",
"= d - s ) vXJXuX|./././. X9XtXiX4X9X#X|.wXDX&X1.R z p P 5.NXVXK./.E.G.2XSXnX-.c o . 3 8 3 3 X X     ",
"X X u Q e.GXiXC.qX X}.}.2XtXtXiX6XiXwX1XBXHXcX] u & . y ..MXSXK. XoX[.T.sXGXw.Q & $ + 7 A A w 0 O . ",
"9 X c 0.CX6X!.+X].8XyXVXSXSXaXuXuXDXDXgXDXPXcX .- b e 1 Q *XiX|.C.0X0Xc.c.K.,.' % $ + 0 A A A A O X ",
"$ u $.rX@XT.T.'.7X7X9X+X9XqXVXGXPXPXGXBXCXPXLX5.P p p P >.uX`._.`.1XrX*X7.[ c * N F O.O.C 3 .       ",
"& ) q.rXOX_.^. X4X7X4X9X9XiXZXSXBXSXAXDXrXZXHXmX4.3.q.g.:XuX.XwXDX*Xr.[ R , o < 3 C C M 2 4 + *     ",
"p 5.FX1XXXOX).oX4X7X9X7XqXaXZXSXeXuXAXsX1X6XsXpXiX`.6XeXZXGX>X&X7.[ R f : .   O @ q q @   @ S 9     ",
"E bXHXK.`.@X^.^. X4X7X7XtXyXyXVXyX8XtXaXiXwX0X^.OXT.#X6XCXMX3.X.h j o O 2 G G O   ; d = X @ 8 2 O O ",
":.,XyXK.4X9XT.^.oX|.3XqXyXyXiXaXZXuXVXZXyXaXpX#X`.#XAXbX0...l i * 5 2 6 V F Z M @ @ X   X # 5 O   O ",
"a.L.;X-XyX5XV.^._.[.3XtXtXyXqX7XVXVXGXZXuXZXHXHXPXvX0.] v j   . * O e Y J b # # w @   . j n ^ ^ X   ",
"S.F.;X,XVXuXXX_.W._.3X7XtXqX+X+X;XyXZXiX1XdXBXw.lXo.b   X e X   . L X.lXlX<.R o i . . Y +.5.7.1.n : ",
"E.Z.;X,X,XyXwXW._._.#X7X7X7XoXoX6X6X3X#XwXdX9.` v q B M 8 q X X > 5.LXUXBXBX;.y > . t +.KXIXeX&XhXJ ",
"S.b.'.4X}.Y.|.{.{./.)./.oX{.4X4XoX@X@X`.6X>X;.W o . 3 N 7 N 5 % g -.FXPXHXLXhXx < d s ` UXHXrXPXhXb ",
"V.R.]. X X X{.]./././.).{. X X X+X@XXX#XwXeX9.:.) n $ . + 0 0 o % ~ lXnXnXlXo.. + e s T lXvX9.zX+.s ",
"z.[.Y.V.+X+X!.E./.Q./.{.{.{. X X[.^._.@X0XpXuXbXzX1.! h y & $ . X b { o. .} n   O w X s ~ ../ ..T   ",
",.;X.Xz./.).V.Q.Q.E./.].{.{.{.{.^.R._.OXOXXX0XAXCXbXkX<.) L y $ # @ w 1 > 1 e # O S @   s m i y q   ",
"$.mXuXc.!.E.V.Q.E.E.].].].].^./.).W.W.).W.C.C.XX9XpXSXmXw.%./ L -   @ w + * *   q K S 2 2 0 $ . . # ",
"E q.NX,X.XR.E.Q.E.~.].].~.^.Q.W.Q.R./.oX/.R.T.).oXoX+XqXyX>Xh.-.W m u & . . o X ; q S V M M 3 $   w ",
"k =.nXFX-XA.E.E.S.P.U.U.]./.Q.Q.W.Q.Q.{.4X9X9X+X).W.R.W.+X9X-X$X,.:.E U r r > o X   6 F V 6 # . X e ",
"& ! lXMX-XY.E.S.F.P.U.U.~.E.W.Q.(.Q.E.Y.2X5X}.V.W.Q.(.Q.T.V.R.[.`.x.q.=.( I k X - X S G F 6 o . X < ",
"% h ] w.>XY.D.P.L.L.I.I.U.].W.W.W.W.W.W.R.A.R.V.~.~.].{.].F.m.b.G.G.Y.K.t.:./ l $ + 3 M 2 @ X X < w ",
"D > h :.%XtX}.Z.D.L.L.I.P.F.E.R.Q.Q.E.W.E.E.~.~.A.F.F.F.F.D.m.b.D.b.y.H.:Xf.3.o.$ + 2 6 2 O X X o O ",
"H O O L 3.>X5XD.N.D.L.L.F.S.E.S.E.E.F.E.~.~.].].F.F.D.F.L.L.L.N.N.a.a.i.:XxX6.} . . O 2 O O   X     ",
"F M . > E :.f.<XM.M.N.N.N.Z.Z.Z.m.Z.Z.Z.Z.Z.Z.D.L.L.M.M.J.I.J.I.a.a.=X:XxX=.E y . . O O O           ",
"F F A $ & L $.h.j.s.J.M.B.B.B.N.B.M.m.m.m.m.m.b.M.M.n.a.s.J.s.j.s.j.j.xX=._ p $ . O   O   O         ",
"V N 7 + . > R ) kXg.%X>X<XJ.J.I.M.M.M.m.b.b.b.b.M.n.H.s.j.j.j.f.f.g.5...P t $ * O O       O   O     ",
"0 3 O 7 9 0 1 g } *.5.g.$X=XH.J.n.n.n.b.b.b.b.n.n.n.x.=X=Xf.d.h.5.-.R f $ O 3 N O O O     . O O     ",
"1 . + D H B 2 O O h / -.8.p.u.i.i.a.v.v.v.v.b.n.z.t.y.i.d.p.>.>./ v ;   9 H G F 6 2       O + O     ",
"- o X X 4 6 Z Z 6 6 q a v ) =.5.6.k.k.j.f.s.y.t.i.u.8.3.*.) U p & o o O 3 3 6 6 2 2 2 O             ",
"o o X @ 4 8 S Z 8 8 # : > y z P ( _ @.@.&.@.#.#./ _ E P I p t $ . X O O 3 7 8 7 6 2 O O             ",
"o @ o O @ 4 4 4 @ @ @ . . $ $ r & r t t t p a a a * + + + 3 3 2       O 5 5 7 7 2 2 O O             ",
"5 3 4 @ @ X X X     O # + 0 A A + + + 3 3 7 N A N 7 6 6 3 7 8 5         + 5 5 3 O O O               ",
"3 3 2 O   X X X X X   O 3 3 N N w - # @ 4 8 8 M M 6 4 @ @ = = X         O O o O   O                 ",
"2 3 O O O   X o o X     O O 2 O ; - = X   X X     X   X = X X X X       . O                         ",
"O   O       .   .           O @                         . X X             X                         ",
"            O O         X         O O O O O     + . O O O 3 2 O                                     ",
"                                                                                                    ",
"                                                                                                    "
};
