/* XPM */
static char *pacman1709576078[] = {
/* columns rows colors chars-per-pixel */
"50 50 198 2 ",
"   c #010002",
".  c #04030B",
"X  c #0A050C",
"o  c #060B0D",
"O  c #09090D",
"+  c #060504",
"@  c #12030D",
"#  c #19010E",
"$  c #170D04",
"%  c #081307",
"&  c #1C1E00",
"*  c #141403",
"=  c #040313",
"-  c #0A0415",
";  c #010A14",
":  c #0A0C12",
">  c #070518",
",  c #0B031A",
"<  c #010B1C",
"1  c #0B0B1B",
"2  c #110616",
"3  c #1B0210",
"4  c #130816",
"5  c #1B0B15",
"6  c #12031B",
"7  c #130A1C",
"8  c #190B18",
"9  c #061112",
"0  c #091115",
"q  c #161717",
"w  c #2E050F",
"e  c #290709",
"r  c #3D0006",
"t  c #3E0906",
"y  c #3E0108",
"u  c #310A0C",
"i  c #2B110B",
"p  c #231805",
"a  c #2E0412",
"s  c #260F15",
"d  c #310512",
"f  c #201911",
"g  c #1B2201",
"h  c #372203",
"j  c #0A0624",
"k  c #070A23",
"l  c #0C0A2B",
"z  c #080628",
"x  c #130520",
"c  c #150C27",
"v  c #041325",
"b  c #0C1122",
"n  c #01162A",
"m  c #02192B",
"M  c #191024",
"N  c #171527",
"B  c #0C0C32",
"V  c #140E30",
"C  c #03163C",
"Z  c #191E32",
"A  c #242D34",
"S  c #312F3A",
"D  c #420105",
"F  c #410309",
"G  c #591907",
"H  c #62170C",
"J  c #631A0D",
"K  c #423B00",
"L  c #5C2F12",
"P  c #543113",
"I  c #492C0E",
"U  c #67250E",
"Y  c #6D2912",
"T  c #3D420A",
"R  c #3C4216",
"E  c #394134",
"W  c #385632",
"Q  c #514302",
"!  c #4F4E0D",
"~  c #42462B",
"^  c #143347",
"/  c #27364A",
"(  c #364B4E",
")  c #384B4F",
"_  c #3B514F",
"`  c #2D4C51",
"'  c #354D51",
"]  c #394D51",
"[  c #35465C",
"{  c #3A5353",
"}  c #38575C",
"|  c #26454A",
" . c #305566",
".. c #2D6176",
"X. c #346479",
"o. c #376777",
"O. c #495B76",
"+. c #454B63",
"@. c #45796C",
"#. c #8C3C16",
"$. c #8D3D18",
"%. c #913E16",
"&. c #8C4316",
"*. c #954C1A",
"=. c #964F1A",
"-. c #8F5219",
";. c #816C2B",
":. c #8C7B3B",
">. c #91773D",
",. c #91783F",
"<. c #A9783D",
"1. c #A67E41",
"2. c #74976A",
"3. c #729B6F",
"4. c #7A9A6B",
"5. c #639174",
"6. c #729D73",
"7. c #799972",
"8. c #7FA675",
"9. c #97823D",
"0. c #939E4F",
"q. c #8C975C",
"w. c #8A995E",
"e. c #969C5C",
"r. c #8D9C49",
"t. c #B19B52",
"y. c #A48C44",
"u. c #8CA65F",
"i. c #96A550",
"p. c #B5AA5E",
"a. c #A3B25D",
"s. c #A3A657",
"d. c #8E9561",
"f. c #899B61",
"g. c #909763",
"h. c #919D79",
"j. c #86A861",
"k. c #96A562",
"l. c #80A675",
"z. c #80B07E",
"x. c #95B76D",
"c. c #BAB563",
"v. c #CD9357",
"b. c #CF915A",
"n. c #CE985A",
"m. c #D1925B",
"M. c #D49D5D",
"N. c #DCA262",
"B. c #C6BD6D",
"V. c #D5BA6D",
"C. c #EAB56E",
"Z. c #EAB26E",
"A. c #B3C571",
"S. c #A3C57B",
"D. c #C6C675",
"F. c #EDC97D",
"G. c #4B5D81",
"H. c #4E6E83",
"J. c #497B93",
"K. c #517690",
"L. c #627A92",
"P. c #579E9A",
"I. c #61969A",
"U. c #74A58D",
"Y. c #7CA48E",
"T. c #7DA491",
"R. c #78A993",
"E. c #66A998",
"W. c #5E86A9",
"Q. c #5CA9B4",
"!. c #7FBFBE",
"~. c #6EB5B9",
"^. c #6E8AAF",
"/. c #62AAC2",
"(. c #6DBAC4",
"). c #79C6D6",
"_. c #82A78F",
"`. c #81A98E",
"'. c #82B885",
"]. c #86AA90",
"[. c #81B4A1",
"{. c #8FC496",
"}. c #96CB9D",
"|. c #AFD089",
" X c #AED499",
".X c #B1D492",
"XX c #8DC0AF",
"oX c #97CDA7",
"OX c #9AD6BC",
"+X c #BAE4B6",
"@X c #C4D48A",
"#X c #C7DE98",
"$X c #D0DAA5",
"%X c #C9E2AB",
"&X c #9BD2C8",
"*X c #92C4DB",
"=X c #86CAE0",
"-X c #A6D8F3",
/* pixels */
"                                                                                          +         ",
"                                                        +       +                             +     ",
"                                                            .                                   +   ",
"                                                            +                             +         ",
"                                                      +         +                     +             ",
"                                                                                            +       ",
"                                                        +                         +             +   ",
"                                                                                          +         ",
"                                                            +                 .                   + ",
"                                                            .       .             .                 ",
"  .           .     .                                 . .   .   .   .   .   .   .       .     .   + ",
"      . .   .   . .   . .   .   .   .   .   .     . .     .   .   .     .   .     . .   . . .   . + ",
".     .   . .   .     . .     .     . . . . . . . . . . . . . . . . . . . . . . . . . . . . . . . . ",
".   . .   .   . . . .   . . . . . . .   . . .   . . . . . . . . . . . . . . . . . . . . . . . . . . ",
".   .   .   .     .   .   . .   . . . . . . . . . . . . . . . . . . . . . . . . . . . . . . . . = . ",
"  . . . . . . . . . . . . . . .   . . . . . . . . . . . = . = = = . = = . = = . = . = . = . = = = = ",
"+ . X . X . .   + . X . + . . . . + . . X X + + + 2 @ . . - - . > k = = M = . > . ; . ; - - - = , , ",
"@ @ X X X @ X X @ X @ X @ @ X X X X X X @ # @ @ @ @ + X - 4 2 , = > > = = = > = . 1 = - = = - , , , ",
"# # # 3 # 3 3 3 # # 3 3 # # 3 # # # # # # # # e # # # 5 5 2 2 7 6 x x x M - = 6 , , 2 , - - - = = = ",
"a a a a a d a a a a d a a d a a w w w w d a a u w w e s s 5 5 8 4 2 2 1 . - 8 M 6 2 6 , 7 > = o ; . ",
"D F y y F y y y D y y y y y y F D D D D D D D D t D t e u i i i $ f f * % q q . = N j j k ; < ; ; o ",
"H G G H H G H H H H J J H H G H H H H H J J J J U U U G L P I h p & & & g * + 0 N = V z k k < < ; ; ",
"$.$.$.#.#.#.$.$.$.$.$.$.$.#.#.#.%.%.%.%.&.&.&.*.=.*.-.-.<.<.>.;.Q K ! ! T R R E S j V z B z j > - - ",
"b.b.b.b.b.b.b.b.m.m.b.b.b.b.b.b.v.m.v.v.n.n.M.N.N.Z.F.C.F.V.V.D.c.D.A.D.@X$Xh.W A +.B B B l z j 2 , ",
",.,.>.>.>.>.>.>.>.>.>.>.,.,.>.,.:.:.:.:.:.:.:.9.y.y.t.p.p.s.i.r.i.a.A.|.#X%XW % | ^ C C C B B z x 6 ",
"d.d.d.d.d.d.d.d.g.g.g.g.g.d.d.d.q.f.f.f.f.w.w.w.e.e.g.k.k.u.u.j.x.S.|..X X+X5.o.I.J.J.W.^.G.O.l , c ",
"7.7.7.7.7.7.7.7.7.7.7.7.7.7.7.7.6.3.6.6.6.6.3.2.2.2.4.f.j.z.8.R.{.{.}.oXoXOXE.P.Q.Q./.=X-XK.L./ = = ",
"T.Y.T.Y.T.T.T.T._.T.T.Y.T.T.T.T.T.Y.U.U.R.R.T.T._._.].].'.Y.Y.U.R.R.R.XX&X&XXX(.(.).=X=X*X .O./ b b ",
"( ( ( ( / ) ] ) ] ] ] ( ] ( ] ( { ' ` ( { ' { ' { _ ' ' { _ { } } } ' ` }  .o.o.....X.X.H.[ [ Z = = ",
"= ; ; ; > > ; ; ; o ; = ; ; ; o ; . ; ; < ; ; ; ; ; o o ; ; ; 9 ; ; v k k < m n n n m n n v = = > 1 ",
"o o O O O O : O 0 0 : O : : 9 : 0 O : 1 7 1 0 : : 9 9 9 : 0 0 0 0 : 1 ; < ; v ; v n n v k b = V 1 = ",
"X . o + o o X o + X O O . + + X X X O X O O O o o o 9 o o o o o O O 1 1 1 > b = b = 1 b = > 1 = = , ",
". X X o X o . X o X - X o X X o X X o . X : O X o o X o o : X - : : - - - > > > : > > > = , > , = = ",
"O o X = - . X o X = . o o . X = o o . - . o . X X o = o X o o . - = = - - - - > - > - = = = > = = = ",
". . . . o . . . . . . o . . . . . . . . . . . . . . . . . . . . = = o = = = = = = = = - = = = = . = ",
"+ . .     . .   . + .   +   . . . .   . . . . .   . . . . .   . . . . . . = . . = = . = . = = . = = ",
".     .   . . . .   .   .   .     . . .   .   . .   .   . .   . . . . . . . . . . . = . . . = . . . ",
"  . .   .     .   .   .   .   . .       .   .   .     .   . . .   . . . . . . . . . . . . = . . . . ",
"    . .         .   .         .   .   .       .       .   .   . . .       . . . . . . . . . . . .   ",
".         . .   .       . .       .       .     .       .             . .       .   .     .     .   ",
"                                                                                        . .         ",
"                                                                                      .       .     ",
"                                                                                              .     ",
"                                                                                                    ",
"                                                                                                    ",
"                                                                                                    ",
"                                                                                                    ",
"                                                                                                    ",
"                                                                                                    ",
"                                                                                                    "
};
