/* XPM */
static char *desktop_wallpaper_pac_man_mobile__2_1709575783[] = {
/* columns rows colors chars-per-pixel */
"50 50 174 2 ",
"   c #020109",
".  c #02000B",
"X  c #03020A",
"o  c #04030B",
"O  c #03010C",
"+  c #02000D",
"@  c #03010E",
"#  c #07010D",
"$  c #04020D",
"%  c #05030E",
"&  c #04020F",
"*  c #05040C",
"=  c #06050D",
"-  c #06040F",
";  c #09010E",
":  c #08020E",
">  c #09030F",
",  c #0A020F",
"<  c #0E020E",
"1  c #0F030F",
"2  c #13030E",
"3  c #14040F",
"4  c #18040D",
"5  c #19050E",
"6  c #1A060F",
"7  c #1C050D",
"8  c #1D060E",
"9  c #1E070F",
"0  c #18090E",
"q  c #050310",
"w  c #060411",
"e  c #090311",
"r  c #0B0310",
"t  c #0A0410",
"y  c #0B0511",
"u  c #0A0412",
"i  c #0B0513",
"p  c #0C0411",
"a  c #0D0512",
"s  c #0C0614",
"d  c #0D0715",
"f  c #0E0910",
"g  c #08091B",
"h  c #140313",
"j  c #100410",
"k  c #110511",
"l  c #150510",
"z  c #160611",
"x  c #1B0710",
"c  c #1C0811",
"v  c #1F0810",
"b  c #21060F",
"n  c #24060E",
"m  c #25070F",
"M  c #320001",
"N  c #330002",
"B  c #340003",
"V  c #350004",
"C  c #3A0309",
"Z  c #3B040A",
"A  c #3C050B",
"S  c #3D060C",
"D  c #3E070D",
"F  c #220710",
"G  c #200911",
"H  c #230811",
"J  c #260810",
"K  c #270911",
"L  c #240912",
"P  c #2A0F16",
"I  c #3C0312",
"U  c #350018",
"Y  c #35001F",
"T  c #2E1510",
"R  c #2E1511",
"E  c #2B1017",
"W  c #2C1116",
"Q  c #2C1118",
"!  c #2D1219",
"~  c #2E131A",
"^  c #0D0826",
"/  c #5F1E0C",
"(  c #550F17",
")  c #530C1C",
"_  c #540D1D",
"`  c #550E1E",
"'  c #560F1F",
"]  c #5F1C13",
"[  c #571020",
"{  c #5C1525",
"}  c #5D1626",
"|  c #5E1727",
" . c #5F1828",
".. c #601929",
"X. c #253B52",
"o. c #820004",
"O. c #830005",
"+. c #840106",
"@. c #850207",
"#. c #840109",
"$. c #860308",
"%. c #8F0C11",
"&. c #900D12",
"*. c #910E13",
"=. c #920F14",
"-. c #900C19",
";. c #900B1C",
":. c #922707",
">. c #922800",
",. c #912219",
"<. c #92231A",
"1. c #93241B",
"2. c #94251C",
"3. c #95261D",
"4. c #9C2E1D",
"5. c #9A2B22",
"6. c #9B2C23",
"7. c #9C2D24",
"8. c #9D2E25",
"9. c #CE0300",
"0. c #CF0400",
"q. c #D00300",
"w. c #D00202",
"e. c #D00500",
"r. c #D10600",
"t. c #DA0F00",
"y. c #DB1001",
"u. c #DC1102",
"i. c #DD1203",
"p. c #DC1005",
"a. c #826A22",
"s. c #846C24",
"d. c #866E26",
"f. c #B06E22",
"g. c #B27024",
"h. c #B47226",
"j. c #E77400",
"k. c #E87500",
"l. c #EA7700",
"z. c #48817A",
"x. c #6A9E6D",
"c. c #56A07D",
"v. c #57A17E",
"b. c #58A27F",
"n. c #6CA06F",
"m. c #6DA170",
"M. c #D2810C",
"N. c #D2810E",
"B. c #D38018",
"V. c #D48119",
"C. c #D58218",
"Z. c #D5821A",
"A. c #D6831B",
"S. c #D2C80E",
"D. c #D3C90F",
"F. c #D4CA10",
"G. c #D5CB11",
"H. c #D3C816",
"J. c #DAD016",
"K. c #DBD117",
"L. c #DCD218",
"P. c #DDD319",
"I. c #DACD29",
"U. c #DACB30",
"Y. c #58A885",
"T. c #60A68A",
"R. c #62A88C",
"E. c #63A98D",
"W. c #79B383",
"Q. c #7AB484",
"!. c #7CB686",
"~. c #5EB6B7",
"^. c #5FB7B8",
"/. c #61B9BA",
/* pixels */
"                o o o o o o o $ $ $ $ $ $ $ $ $ $ $ $ $ $ $ $ $ $ $ $ $ $ $ $ $ $ $ $ $ $ $ $ $ q q ",
"o     o o     o o o o o o o o $   $ $ q $ $ q $ q $ $ $ q $ q $ $ $ q $ q $ $ $ q $ q $ q $ $ $ $ q ",
"    o   o   o   o o o o o o o $ $ $ $ q $ q $ $ $ $ $ $ $ $ $ $ $ q $ $ $ $ $ $ $ $ $ $ $ $ $ q q q ",
"* o o o o o o * o o o o o o o $ $ q $ q $ q q q q q q q q q q q $ q q q q q q q q q q q q q q q q $ ",
"* * * * * * * * o o o o o o o $ $ q q q q q q q q q q q q q q q q q q q q q # w q q q q q q q q q $ ",
"* * * * * * * * o o o o o o o $ $ q q q q q q q q q q q q q q q q q q q q q q w q q q q q q q q q q ",
"= = = = = = * * o o o o o o o $ q w w w w w w w w w w w w w q q w w w w w w w w q q w w w w w w $ q ",
"= = = = = = = * o o o o o o $ # q w w w w w w w w w w w w w q q w w w w w w w w q q w w w w w w $ q ",
"y > > > > > > > # > # > r r y y > > > > > > > > w r r r > > > > > > > > > > > > > > > > > > > > w # ",
"p r r r r r r r > > > > r i y p r r r r r r r r r r r r r r r r r r r r r r r r r r r r r r r r r r ",
"j j j j j j j j < < 2 < j j k k j j j j j j r j r j j j j j r j j j 2 p j j j j j j j j j j j j j j ",
"l l l l l l l l 2 2 2 l l z z z l l l l l l l l l l l l l l l l l l l l l l l l l l l l l l l 3 l j ",
"6 6 6 6 6 6 6 6 4 4 4 6 6 9 x x 9 6 6 6 6 6 6 6 6 6 6 6 6 6 6 6 6 6 6 6 6 6 6 6 6 6 6 6 6 6 6 6 x x ",
"9 9 9 9 9 9 9 9 4 9 9 9 9 v v v 9 9 9 9 9 v 9 9 9 9 9 v 9 9 9 9 9 9 9 9 9 9 9 9 9 9 9 9 G 0 9 9 9 9 ",
"H H H H H H H H b b b b F J L L H F F H F H H F F H F H H F K F H H H H H H H H H H K H H H H H F F ",
"m m m m m m m m m m m m J J K K J m m J m m J m m J m m J m m J m m m m m m m m m m m m m m m H J m ",
"P W ~ ~ ! ~ P P P P E E Q Q P P ~ ~ ~ E W W W P W Q Q Q Q Q Q Q P P P Q Q Q ~ ~ Q Q Q Q Q Q Q W R R ",
"N N N N V N N N Z Z Z Z A A Z ( V V V N M n M M B M N N N N V N M M M M B B V V A A A A A Z A I U Y ",
"| | ..........{ ) ) _ ` ` [ ' [ .. . .| } } { {  . .| |  . . . .| { | |  . . . .` ` [ ` ` ` ` ( ] / ",
"9.9.e.e.e.q.r.q.y.y.y.y.u.i.i.i.e.e.e.e.9.9.9.9.0.0.0.0.0.0.0.0.9.9.9.0.0.0.0.r.i.i.i.i.u.u.u.u.e.w.",
"%.*.*.*.=.=.&.&./ $.@.@.#.@.#.$.=.=.*.*.*.%.%.%.*.%.%.%.%.%.%.%.%.%.%.*.*.*.*.-.o.+.+.+.+.+.+.#.;.;.",
",.,.,.3.2.2.<.,.5.5.4.4.6.7.7.7.3.3.1.1.,.,.,.,.1.1.1.1.1.1.1.1.,.,.,.,.1.3.3.5.7.7.7.7.7.7.7.4.:.>.",
"J.J.P.P.P.P.L.P.H.H.D.D.G.F.G.G.P.P.P.K.L.I.J.J.P.P.L.L.L.P.P.P.J.J.J.J.P.P.I.P.D.D.D.D.D.D.D.H.I.U.",
"j.A.A.A.C.C.C.C.h.A.A.j.A.A.A.A.A.A.A.A.A.j.B.B.V.V.V.V.V.V.V.V.B.B.B.Z.Z.Z.A.j.Z.Z.Z.Z.Z.Z.Z.Z.M.M.",
"h.h.h.h.h.h.h.h.h.h.h.h.h.h.h.h.h.h.h.h.h.h.h.h.g.g.g.g.g.g.g.g.g.g.g.g.g.g.g.g.h.h.f.f.h.h.h.f.f.f.",
"j.j.j.j.j.j.j.j.j.j.j.j.j.j.j.j.j.j.j.j.j.j.j.j.j.j.l.j.j.j.j.l.k.k.k.k.k.k.k.k.j.j.j.j.j.j.j.j.l.l.",
"s.s.a.a.a.a.a.a.a.a.a.a.a.a.a.a.a.a.a.a.a.a.a.a.s.s.s.s.s.s.s.s.s.s.s.s.s.s.s.s.a.a.a.a.a.a.a.a.d.d.",
"^.^.^.^.^.^.^.^.^.^.^.^.^.^.^.^.^.^.^.^.^.^.^.^././././././././././././././././././././././././.^.^.",
"E.E.E.E.R.E.E.E.E.E.E.E.E.E.E.E.E.E.E.E.E.E.E.E.R.R.R.R.E.Y.E.E.R.R.R.R.R.R.R.R.R.E.E.E.E.E.E.E.R.Y.",
"m.m.n.n.m.m.m.m.m.m.m.m.m.m.m.m.m.m.m.m.m.m.m.m.x.x.x.x.n.x.x.x.x.x.x.x.x.x.x.x.m.m.m.m.m.m.m.m.m.n.",
"b.b.v.v.v.v.Y.Y.v.v.v.v.v.v.v.v.v.v.v.v.v.v.v.b.c.c.c.c.c.c.v.c.c.c.c.c.c.c.c.c.c.c.c.Y.b.c.c.c.Y.c.",
"W.W.!.W.W.W.W.E.Q.Q.Q.Q.Q.Q.Q.Q.Q.Q.Q.Q.Q.Q.Q.Q.!.!.!.!.!.!.!.!.!.!.!.!.!.!.!.!.Q.W.W.W.Q.Q.Q.W.W.W.",
"Y.Y.Y.Y.Y.Y.Y.Y.Y.Y.Y.Y.Y.Y.Y.Y.Y.Y.Y.Y.Y.Y.Y.Y.Y.Y.Y.Y.Y.Y.Y.Y.Y.Y.Y.Y.Y.Y.Y.Y.Y.Y.Y.Y.Y.Y.Y.Y.Y.Y.",
"z.z.z.z.z.z.z.z.z.z.z.z.z.z.z.z.z.z.z.z.z.z.z.z.z.z.z.z.z.z.z.z.z.z.z.z.z.z.z.z.z.z.z.z.z.z.z.z.z.z.",
"X.X.X.X.X.X.X.X.X.X.X.X.X.X.X.X.X.X.X.X.X.X.X.X.X.X.X.X.X.X.X.X.X.X.X.X.X.X.X.X.X.X.X.X.X.X.X.X.X.X.",
"^ ^ ^ ^ ^ ^ ^ ^ ^ ^ ^ ^ ^ ^ ^ ^ ^ ^ ^ ^ ^ ^ ^ ^ ^ ^ ^ ^ ^ ^ ^ ^ ^ ^ ^ ^ ^ ^ ^ ^ ^ ^ ^ ^ ^ ^ ^ ^ ^ ^ ",
"l z k h h h z z h l h z h z h h l h h x h l h z h h l h h h l z h h z h h h z h z l h l h l h h l z ",
"0 0 0 0 z z 0 0 z 0 z 0 z 0 0 z 0 0 z 0 z 0 z z 0 z 0 0 0 z 0 0 0 z 0 0 0 z 0 0 z 0 z 0 z 0 0 z z z ",
"f f f f f f f f f f f f f f f f f f f f f f i f f f f f f f f f f f f f f f f f f f f f f f f f f f ",
"g g g g g g g g g g g g g g g g g g g g g g g g g g g g g g g g g g g g g g g g g g g g g g g g g g ",
"d d d d d d d d d d d d d d d d d d d d d d d d d d d d d d d d d d d d d d d d d d d d d d d d d d ",
"d d d d d d d d d d d d d d d d d d d d d d d d d d d d d d d d d d d d d d d d d d d d d d d d i s ",
"s s d d s s d d d d i d s s i d d s s d s s s s s s s s s s s s s s d d s s d d i d i d d i i d s s ",
"u u u s u u u s p i i i y s s y u s u u u s u s u s u s u s u s u u u s u u u s i i i i i i i i u s ",
"s u s u u u u u s u u u s s s u u u u s u u u u s u s u u u s u s u s u u u u u u u u u i s y s s u ",
"u u u u u u u u u u u u y r u w u u u u u u u u u u u u u u u u u u u u u u u u u u u u p s u r u u ",
"r u u u u r w r u u w u r u r w r w u w u u w u r u u r r w w w u w u u w u r u u u u r w r w r w r ",
"w w u u w r u u w r r u w w r u u w r r u u r u w w r u w r r w r r u u r u w u w u w r u u w r r w ",
"# $ * o o o o o               $ $ $ q q $ $ q q q q $ $ q q q q $ $ *   * * *   *   * * *   * # o q ",
"  $   $ o o o o                 $ q $ q q q q $ $ q q q q $ $ q   $   $ *   * * *   *   * *   $ $ q "
};
