/* XPM */
static char *_2669e53db8740fde2d8ff947c165e40kkZdhGe1It2UGvLK[] = {
/* columns rows colors chars-per-pixel */
"50 50 239 2 ",
"   c #010101",
".  c #0B0201",
"X  c #040903",
"o  c #0B0902",
"O  c #02020A",
"+  c #0A030A",
"@  c #0B0A09",
"#  c #110200",
"$  c #140C00",
"%  c #190A00",
"&  c #190700",
"*  c #151100",
"=  c #1E1100",
"-  c #1D1904",
";  c #030112",
":  c #0B0811",
">  c #161813",
",  c #110A11",
"<  c #281900",
"1  c #332200",
"2  c #3C2B01",
"3  c #372900",
"4  c #37310A",
"5  c #252521",
"6  c #313125",
"7  c #423301",
"8  c #493A03",
"9  c #4E3B11",
"0  c #513A0D",
"q  c #4A410C",
"w  c #584903",
"e  c #5D4A16",
"r  c #5A540C",
"t  c #735A12",
"y  c #6A5717",
"u  c #766619",
"i  c #5C5423",
"p  c #5F4828",
"a  c #7D6620",
"s  c #535352",
"d  c #736042",
"f  c #787678",
"g  c #566352",
"h  c #826C16",
"j  c #A67E00",
"k  c #836C2D",
"l  c #887927",
"z  c #877436",
"x  c #8F7953",
"c  c #7B8378",
"v  c #98821D",
"b  c #A68300",
"n  c #AC8301",
"m  c #AC8B01",
"M  c #AE8509",
"N  c #AB8B06",
"B  c #B28604",
"V  c #B38B03",
"C  c #B0860A",
"Z  c #B38B0B",
"A  c #BB8F02",
"S  c #AD9109",
"D  c #B69304",
"F  c #BB9203",
"G  c #BA9B04",
"H  c #B4920B",
"J  c #BB940B",
"K  c #BD9B0A",
"L  c #B79C06",
"P  c #AE8A15",
"I  c #B18A13",
"U  c #B89713",
"Y  c #BDA307",
"T  c #BAA518",
"R  c #9B833A",
"E  c #A59528",
"W  c #B69827",
"Q  c #A68C38",
"!  c #AA9533",
"~  c #B49A37",
"^  c #A18A2D",
"/  c #BBA424",
"(  c #BAA638",
")  c #C19606",
"_  c #C49C04",
"`  c #CA9D01",
"'  c #C2960B",
"]  c #C49D0A",
"[  c #CA9D0A",
"{  c #D49A07",
"}  c #C39912",
"|  c #D09C14",
" . c #C3A202",
".. c #CBA305",
"X. c #CDAB04",
"o. c #C3A30B",
"O. c #CBA40A",
"+. c #C3A90D",
"@. c #CDAA09",
"#. c #D1A604",
"$. c #D2AB05",
"%. c #D9AE05",
"&. c #D2A509",
"*. c #D4AB0B",
"=. c #D9AD0B",
"-. c #DDA70B",
";. c #CEB606",
":. c #DBB203",
">. c #D4B20A",
",. c #DCB20D",
"<. c #D6BA04",
"1. c #CCA312",
"2. c #C7AC13",
"3. c #CBAC14",
"4. c #C7A71A",
"5. c #D3AC13",
"6. c #D9A514",
"7. c #CAB11B",
"8. c #D4B312",
"9. c #DCB513",
"0. c #D9B919",
"q. c #E6AB0F",
"w. c #E1B402",
"e. c #E6BC04",
"r. c #E5BD0E",
"t. c #EBBA07",
"y. c #E5BC11",
"u. c #E4BA14",
"i. c #C09723",
"p. c #C8B329",
"a. c #D9BA28",
"s. c #C6AD3A",
"d. c #C7B53C",
"f. c #D4BA37",
"g. c #C3A32A",
"h. c #E2BD26",
"j. c #DAC313",
"k. c #E6C101",
"l. c #E9C205",
"z. c #EDC20A",
"x. c #EBDB01",
"c. c #FADE08",
"v. c #EEC313",
"b. c #E7CA18",
"n. c #F5CD15",
"m. c #F5CD1B",
"M. c #E9D913",
"N. c #FAD21B",
"B. c #F7D616",
"V. c #F2C20A",
"C. c #FDEC0C",
"Z. c #F8E808",
"A. c #FDF00A",
"S. c #FBF106",
"D. c #FAEE12",
"F. c #F7E715",
"G. c #FFF21A",
"H. c #FCF117",
"J. c #ECE413",
"K. c #DBC43A",
"L. c #DCD02E",
"P. c #E4CC2B",
"I. c #EAC825",
"U. c #E8DA29",
"Y. c #FCD522",
"T. c #FFDC23",
"R. c #F7D827",
"E. c #E5CC37",
"W. c #E9D535",
"Q. c #F8D739",
"!. c #FFEB22",
"~. c #F7E728",
"^. c #FFF221",
"/. c #FFF22C",
"(. c #F8E63B",
"). c #978751",
"_. c #A68D45",
"`. c #B59C48",
"'. c #AC9747",
"]. c #BBB148",
"[. c #B9A857",
"{. c #B8A951",
"}. c #948B6E",
"|. c #B7AD6A",
" X c #B0A07C",
".X c #C5AD48",
"XX c #CBB44B",
"oX c #D3BB44",
"OX c #C9B956",
"+X c #D4BC58",
"@X c #D8C349",
"#X c #D9C657",
"$X c #C9C25A",
"%X c #E6DA46",
"&X c #E5DA52",
"*X c #EDD151",
"=X c #F6E743",
"-X c #F9E655",
";X c #EDE457",
":X c #E3CD69",
">X c #E5D371",
",X c #E4D371",
"<X c #F3E26B",
"1X c #D9C86C",
"2X c #8B8D86",
"3X c #B5AB8B",
"4X c #B8B8AA",
"5X c #CCBA92",
"6X c #D4BB92",
"7X c #C6BAA6",
"8X c #CBC29B",
"9X c #F6EA91",
"0X c #D1CBA3",
"qX c #E1DDAE",
"wX c #F5E7A8",
"eX c #FDF5A6",
"rX c #F5E4BA",
"tX c #FBE8B9",
"yX c #FFFDB2",
"uX c #FDF7BA",
"iX c #EDE4B0",
"pX c #E7CE8B",
"aX c #D7D1CF",
"sX c #E6D8C6",
"dX c #F4E4C7",
"fX c #E9E6D8",
"gX c #FEFEDB",
"hX c #FBF6DB",
"jX c #F3EBD0",
"kX c #E4DFE3",
"lX c #E8E9E6",
"zX c #FFFBE1",
"xX c #FCFEED",
"cX c #F9F4E2",
"vX c #EEF6F1",
"bX c #FDFEF3",
"nX c #FCFDFE",
"mX c #F6F8F9",
"MX c #F2EEF3",
/* pixels */
"    O O O           O         X X O       O ; O   .           5 s f c c g > X               O O     ",
"    O O           O O   X   X         X   O O O .         6 4XfXbXbXbXbXbXfX2X5           + O O     ",
"              O O O O O                           o     }.xXgXxXhXhXhXzXcXbXbXmXs @ O O O           ",
"O           O O + O + +       , > > @     o - 3 q r r l eX9XwXeXyXyXuXuXtXrXdXhXbXs O O   X         ",
"O O O O             @   5 f aXkXmXMXkX7X3X|.$X&X;X%X=X(.P.P.P.W.L.%X&X#X@X#XOXz 3XaX@ O O X         ",
"O O O O         @     f lXnXmXnXnXnXnXxXgXeX<XL.P.M.J.x.F.c.c.F.J.~.U.U.(.(.%XE y 8X-   O O   X     ",
"    O             @ 2XbXnXnXnXnXnXnXnXbXxXgXeX>XU.F.x.Z.c.c.c.Z.x.D.F.F.!.B.~.=X&X].=   , O         ",
"                  s bXlXmXnXmXnXnXnXbXcXcXzXgXeX=XM.C.Z.C.C.C.Z.C.Z.Z.C.F.!.!.!.(.-X{.2 . #         ",
"          + O +   4XxXfXvXnXmXbXbXfX0XqX0X XtXyX-X~.J.D.D.D.C.C.C.A.A.D.!.!.N.b.<.;.P.@Xk . .       ",
"O       O + .   4 dXfXlXlXvXvXbXcX3XiXiX5X).x eX-X~.J.Z.D.H.H.G.^.^.!.M.;.Y G G  . .X.2.:X)..       ",
"; O     + + . i |.uXjXfXMXlXlXxXsXx rX9 9 6Xt <X=XG.S.S.H.G.G.!.I.8.D b m D K ) ..` =.a.p.,Xi       ",
"O O     + . 7 [.].$XjXsXfXlXfXfXjX}.d p x z ~ -X(.F.D.G./.R.<.G b b m S S H J } _ 5.@.7.K.OX<       ",
"      . . < ! p.T / ,XtXdXsXfXfXfXjX7X5X|.1X&X(.~./.~.b.2.m b b V B m m H K o.o...X.8.K.#X3   :     ",
"      . # u f.Y +.7.s.+XpXwXtXrXdXrXuXeX9X<X(.~.U.j.Y m b b M C b B D D L K o.+.2.7.@X( 3 .   O O   ",
"X   + . 3 .XT 3.5.@.>.3.f.oXOX:X>X:X*XK.E.W.P.8.D m b n V V M b V V F K _  . .+.f.#Xk # . .         ",
"    + # u oXY O.*.$.<.<.<.0.f.f.f.a.a.P.I.>.F b B n B B B n B Z J V F K ] o.p.@X( 8 . . + O         ",
"  X   # ! p. .X.@.*.>.<.<.<.0.a.h.I.h.5.F b b B n M B B B V Z Z H J J K 7.oXOXu $ . .   O O         ",
"    . < ( 2. .X.X.$.*.>.<.<.u.h.0.1.F n b n B C M C C B B V B V H U U f.XXh 1 .         O O         ",
"      7 d.2.O.5.$.$.*.8.9.0.5.1.V n j j b M M n M M B B B V V V J U s.h 2 # . . .       X   O       ",
"O     8 d.+.3.1.$.%.>.8.5.1.A n j j b M M M C C C C B B B V V V B B W t # # . +       X O O o       ",
"O   . 7 d.+.3.O.&.$.$...A n j n Z M M C Z Z Z Z C C B V V V V V ' V I W R < . + o     O O O         ",
"O     3 ( 2.O.O...` F V B B B Z Z Z Z J J J Z V Z D D D F F F F F V J U W '.9 .     X O O O         ",
"O O   = E 7.o....._ F A ) ' ' J ' ' ) F F F ' ] ) ) ) ' ' ' ' ' ) _ ) ) ' i.XXu o   o               ",
"O O . . l p.Y  .` ..O.[ [ [ [ [ [ _ ` ......` ` _ _ _ _ [ [ [ [ ..` ` { { | 4.oXl *       O         ",
"X   . . 7 XXT +.....O.5.*.*.*.*.#.X.$.$.$.$.$.$.#.#.#.#.#...&.#...#.&.6.6.6.6.5.K.E *   O ; O       ",
"      $ . l XXU Y @.O.O.*.%.*.=.=.:.,.:.:.:.:.:.:.:.:.:.:.%.%.%.%.%.=.-.-.q.q.u.9.E.{.$   + +       ",
"        . % [.s.T Y o.O.@...#.,.=.,.9.u.u.r.r.r.w.w.w.:.:.w.e.e.:.:.:.:.w.w.t.t.t.9.*XQ % . .       ",
"      .   # 2 [.s.T L K O.@.....&.*.=.,.9.y.y.v.v.v.z.z.l.e.e.e.r.r.k.k.k.e.t.t.V.v.I.-Xt #         ",
"    X   + . . q [.( / U L ] O...O.O.@.@.*.%.,.,.y.v.n.m.N.N.n.n.m.b.l.k.k.k.l.l.z.z.Y.Q.@X<   X     ",
"        O   o . 7 '.+XW U } K [ O.O.O.O.O...@...$.%.,.y.v.m.Y.T.Y.Y.N.B.B.B.n.n.B.N.R.Q.<X2   O     ",
"O O O     X   o . < l XXg.H K F ) _ _ o.o.O.O.O.........#.%.,.y.m.N.T.T.T.T.Y.N.n.Q.-X+Xy . O O O   ",
"O O O       O + . . # 8 ! .X~ W H D K ] ] ] ] [ ) _ _ _ ) _ ` ` ` ..%.>.8.8.0.a.E.f.v 1 .   O O O   ",
"O O               o . . = e ).[.s./ U S V J J F J ' ' ' } } } ' F F F V P W ! Q a 3 . . o + O O     ",
"                O     .     * 8 u ^ .XXX( W P I Z Z I I I I P P I I W ~ Q l e 1 # .   o   O O O     ",
"                O O +   . o . . # < 2 e z _.`.`.`.~ ~ ~ ~ ~ ~ ~ _.z k e 1 % . .                     ",
"                O O O     . . .   . . . # % < 3 7 8 w w w w 8 7 < & . . . . .     X X               ",
"                O O O O       .               . . . . . . . . . .   . .       O O O                 ",
"                  O O O O +                   .       . +             + O O O   O X                 ",
"                O O O O O     O O O O O O       O           O                       X X             ",
"O                     O   O O               O +                                 X                   ",
"O                                                                 O O                               ",
"O O O                                                           O O O O                     O       ",
"O O O                                                                                       O       ",
"    O                           O O O O O O O O                                             O       ",
"                                O O O O O O O O O                                           O       ",
"                                  O O                     O O                                       ",
"          O O O                                                                                     ",
"        O   O O                                                 O O O O   O O O O                   ",
"                                                                                                    ",
"                                                                                                    "
};
