/* XPM */
static char *_31b2a210d4a453fe4c97a8cf852bbecTFimOkaIFdVpMWEH[] = {
/* columns rows colors chars-per-pixel */
"50 50 247 2 ",
"   c #010102",
".  c #0B0202",
"X  c #040902",
"o  c #0A0B04",
"O  c #03020A",
"+  c #0B030B",
"@  c #040A0B",
"#  c #0B0B0B",
"$  c #120302",
"%  c #1A0400",
"&  c #150902",
"*  c #1C0A02",
"=  c #12030A",
"-  c #130B0B",
";  c #191400",
":  c #171409",
">  c #030213",
",  c #0B0412",
"<  c #0D0B13",
"1  c #0B021B",
"2  c #150B12",
"3  c #161315",
"4  c #0E1116",
"5  c #231302",
"6  c #281C03",
"7  c #321F04",
"8  c #211E17",
"9  c #200F00",
"0  c #19231A",
"q  c #262100",
"w  c #332205",
"e  c #3B2B02",
"r  c #3B2B0B",
"t  c #3A3402",
"y  c #24201F",
"u  c #2A2929",
"i  c #34362B",
"p  c #46370B",
"a  c #483714",
"s  c #503E1A",
"d  c #4C3E28",
"f  c #4D4411",
"g  c #5C4A1B",
"h  c #51490B",
"j  c #695719",
"k  c #585227",
"l  c #58492C",
"z  c #645124",
"x  c #776427",
"c  c #7C6B31",
"v  c #72702D",
"b  c #525352",
"n  c #566351",
"m  c #726447",
"M  c #5E5D63",
"N  c #75786F",
"B  c #79757B",
"V  c #A27F1C",
"C  c #826B3B",
"Z  c #897738",
"A  c #867229",
"S  c #877740",
"D  c #8C7A5B",
"F  c #91821D",
"G  c #A7861C",
"H  c #B5971C",
"J  c #AA951E",
"K  c #9D8A3B",
"L  c #AA8524",
"P  c #AD8B25",
"I  c #AA872A",
"U  c #AD892A",
"Y  c #A58526",
"T  c #B18D25",
"R  c #B18C2A",
"E  c #B28625",
"W  c #AA9426",
"Q  c #B59225",
"!  c #BB9426",
"~  c #B69A25",
"^  c #B5932A",
"/  c #BB952B",
"(  c #B39B2B",
")  c #BC9B2A",
"_  c #BE9D25",
"`  c #AD8A33",
"'  c #AD9233",
"]  c #A69438",
"[  c #B39131",
"{  c #B29B33",
"}  c #B69B38",
"|  c #BCA32C",
" . c #B9A527",
".. c #B4A436",
"X. c #C39D2C",
"o. c #CB9C2C",
"O. c #C39A27",
"+. c #C49934",
"@. c #CBA625",
"#. c #C3A22C",
"$. c #CAA52D",
"%. c #CCAA2E",
"&. c #C3A729",
"*. c #D1AB2D",
"=. c #D3A72C",
"-. c #CDB32E",
";. c #CBB429",
":. c #D4B22E",
">. c #DCB52D",
",. c #D4BC2C",
"<. c #D8BC28",
"1. c #C4A432",
"2. c #CCA533",
"3. c #C4AC33",
"4. c #CCAB33",
"5. c #CBAA3A",
"6. c #D3A532",
"7. c #D3AD32",
"8. c #DAA733",
"9. c #CCB333",
"0. c #CBB33B",
"q. c #C8B539",
"w. c #D5B332",
"e. c #DAB432",
"r. c #D4BB34",
"t. c #DDBA34",
"y. c #D6B63A",
"u. c #E1BC33",
"i. c #EABD33",
"p. c #E3BA3A",
"a. c #E7B72B",
"s. c #D8C239",
"d. c #DCD434",
"f. c #E3C02E",
"g. c #E4C333",
"h. c #EAC539",
"j. c #E8C838",
"k. c #F0C439",
"l. c #F2CC3D",
"z. c #E8DB37",
"x. c #F4D43B",
"c. c #F2DD39",
"v. c #FBD83C",
"b. c #E9D72F",
"n. c #EBE63A",
"m. c #F4E33A",
"M. c #FCE53A",
"N. c #F3ED3E",
"B. c #FAEE3C",
"V. c #F8EC36",
"C. c #F6F13C",
"Z. c #938557",
"A. c #9A8344",
"S. c #A58F43",
"D. c #A68E47",
"F. c #AA9948",
"G. c #B39C45",
"H. c #AD9854",
"J. c #B8A746",
"K. c #BDB247",
"L. c #B6A859",
"P. c #B5AF59",
"I. c #91876E",
"U. c #AD9F78",
"Y. c #B5A968",
"T. c #A9A76E",
"R. c #C4B647",
"E. c #D7BB45",
"W. c #C7AF54",
"Q. c #C7B757",
"!. c #D1BC53",
"~. c #D0BE58",
"^. c #C2A946",
"/. c #D5BF66",
"(. c #CAB768",
"). c #D9C649",
"_. c #D9D448",
"`. c #D6C75B",
"'. c #D2D058",
"]. c #E8C946",
"[. c #E7DA46",
"{. c #FCDC46",
"}. c #F7D645",
"|. c #E6D759",
" X c #F3D856",
".X c #E1CA58",
"XX c #ECE844",
"oX c #F5EB42",
"OX c #FCED43",
"+X c #FBEB4A",
"@X c #F9E545",
"#X c #FDF442",
"$X c #FFF549",
"%X c #F5F241",
"&X c #EDE355",
"*X c #F5E855",
"=X c #CBC362",
"-X c #D7C668",
";X c #DCD16F",
":X c #E4DA67",
">X c #EBD273",
",X c #EBE866",
"<X c #F8E869",
"1X c #F6E875",
"2X c #E7E377",
"3X c #878B81",
"4X c #8A908C",
"5X c #AEA88B",
"6X c #B8B197",
"7X c #BAB9AE",
"8X c #B8B7B5",
"9X c #C8BB95",
"0X c #CDB995",
"qX c #D3C98E",
"wX c #E5D088",
"eX c #F5E98E",
"rX c #DED6A8",
"tX c #D5D1AF",
"yX c #F5DFAE",
"uX c #F5E7A7",
"iX c #FAF4A8",
"pX c #EBE2B4",
"aX c #F5E7BA",
"sX c #FDFBB3",
"dX c #FCF7B8",
"fX c #D5D0CD",
"gX c #E9D9C8",
"hX c #E5D9D9",
"jX c #E9E5C9",
"kX c #F8E7C6",
"lX c #E9E7D8",
"zX c #F3EAD7",
"xX c #FEFEDB",
"cX c #F8F5DA",
"vX c #FFF5C1",
"bX c #E8E8E7",
"nX c #FDFEEB",
"mX c #F8F9E6",
"MX c #F2EFF4",
"NX c #EEF6F5",
"BX c #F9F6F4",
"VX c #FDFDF3",
"CX c #F6FBFA",
"ZX c #FEFEFF",
"AX c #FAFCFC",
"SX c #F3F3F7",
"DX c #EBF5ED",
/* pixels */
"  O O O     . .   o X X 0 n N 3XB M u   X   .   .   + , O   X X O O @ X     X O   O       O + O     ",
"    O + #       o   0 4XbXDXVXmXZXBXbX7Xi X   X o # O O O # o X O     #   o O O + O   O O   O O     ",
"  .       2 < O # M BXVXnXmXmXxXzXmXmXmXnXI.o   X X   O O O       # X   o O O O > O O       O X O   ",
"O   X X # O O O b VXcXkXaXaXdXdXdXiXiXuXeXiXv g k f t q ; . + 3 8 y 3       + O O < + O         O O ",
"O       O < O 4 fX5XS (.`.`.'.:X_.|._._._.[.&X&X:X,X:X=XY.5X7XfXMXBXbXfXB u   3   +     O O O + O O ",
"O O #   O O X 8 qXj ] |.*X[.[.[.XXXXoXc.m.m.b.m.z.d._.2XsXxXVXZXZXSXZXMXAXMXN X X : X X   O O O O O ",
"  X   O , 2 . 6 K.:X<Xc.c.@XoXm.%Xz.c.@Xc.@Xc.b.oX[.:XiXxXnXBXCXAXZXZXZXCXAXVX3Xo         O O O O   ",
"      + 2 $ a Y.*X*XoXOX+Xm.OXV.V.B.M.M.M.B.N.N.n.,XiXxXcXzXmXVXAXCXCXSXAXAXbXVXM O                 ",
"    . . * C !.).9.r.g.}.+XOX$XB.OX#XB.N.N.%XN.N.N.,XsXpXU.rXrXtXlXVXCXNXAXDXlXmX8X  + + + O     X   ",
"O X   = Z.-X9.;.| #._ ~  .-.z.oX#X$X$XOXoXN.N.n.XX<XiXZ.I.9XpXpX6XcXnXDXNXbXlXlXjXd . . 2 O   X O O ",
"  O   k wXq.r.5.$.$.X.^ ' Y G H -.j.+X$X#X#X#X%XB.*X2Xj 0Xd l gXD tXmXbXbXMXlXjXiXT.k $ . +   # > > ",
"  #   q P.`.3.$.7.#._ ~ { { I I Y G H ,.m.$X$XN.oX@X<XF.Z D l m I.zXlXbXbXhXjXdX=XQ.Y.p & = +   > > ",
"    3 . e =Xs.<.5.#.$. .W W P P U U I Y W  .j.+X+XXX*X|.-XY.0X9XzXzXjXlXgXkXuXwX..( R.F.7 $ +   X X ",
"X O O   . e J.`.q. .&.#.| ) ~ Q P P I I Y Y P ~ s.[.XX&X<XeXdXvXaXkXaXkXyXwX/.^.0.3. .!.x % . .   X ",
"    O o o $ % C `.).3.) | ) ^ P T P G L U U I Y P ( 3.). X].).:X>X;X;X/.!.E.9.0.3.%.-.( Q.e * O   X ",
"  O @   O + $ % h F.`.q.&.) ) / Q ^ R P L P T G L P P H :.h.].r.y.0.E.0.r.,.;.r.7.$.&.| !.x $ , O X ",
"    X @ @ O   o o ; x Q.!.3.) ) / ^ P P R R R R L L L L L ^ 5.E.p.p.t.,.,.r.r.0.9.4.&.&.9.F.* . o X ",
"        X @     + + $ w A R.E.~ / ^ R P R P L L L U R U G V G Q 2.y.E.s.t.r.:.-.%.4.%.&.3.L.7 . X   ",
"      O O O   X . . $ $ % a x W./ ^ R R R R U U P L Y L L L G V G Q 1.0.y.r.:.;.%.7.4.1.&.Q.a . X   ",
"    X # O O O X   . & $ = % j { T T P P P P P P U U U U I L L L V V L ^ 1.7.w.w.7.%.%.1. .R.a . O   ",
"        O , +   O < 2 . w A.} W ^ ^ ^ ^ ^ ^ ^ R R R R R R U U U R U L L E ! #.4.7.$.$.5. .K.p . O O ",
"    .   O O O   @   . s D.} [ / Q Q Q Q T Q T T Q T T T ^ / ^ T T R R E E E T ! O.$.$.1.3.J.r . O O ",
"    X O + O   #   ; c W.+.+.! O.! ) ) ) ) ) ) ) ) X.X.) ! Q ! ) / / / +.X.+.! ! O.X.$.#.q.] 6 . O O ",
"    X   O O   X ; Z !.$.o.o.o.o.X.X.#.X.X.X.X.X.X.X.X.X.#.$.#.#.1.X.X.o.X.O.X.#.#.X._  .q.Z % . O O ",
"  O     1 1 . : W ).7.=.8.8.8.6.@.@.$.$.$.@.@.@.$.%.*.7.7.*.*.*.2.*.7.7.6.2.6.2.&.&.3...Q.t . +     ",
"O   . O - . & L..XE.p.p.8.8.e.6.7.7.7.7.w.w.e.e.e.e.e.e.:.:.e.e.e.e.*.*.7.7.$.#.&.| J Q.Z % : O     ",
"    O . . 9 S.|.u.i.k.>.>.>.:.>.e.e.t.t.t.e.e.e.>.>.u.u.u.t.t.e.:.:.w.@.&.4.&.#. .( Q.L.5 .   O     ",
"  O     & x  X].i.i.a.k.u.g.g.g.t.u.g.f.f.g.g.h.h.h.h.h.p.e.w.*.*.$.O.7.4.) 1.( ..K.Y.r $ - 2   X   ",
"O   # < 6 ~. Xl.k.k.i.h.g.g.g.j.j.j.x.x.x.x.l.l.h.h.t.e.*.%.%.4.$.X.2.2.X.) ( { K.P.s $ . X + o     ",
"O   @   t eX[.}.x.x.v.j.x.x.x.v.}.{.{.{.}.h.u.>.*.*.$.$.$.#.$.2.$.#.#.! #.) { -XF.p . :       O O O ",
"  > O     z !.<X+Xj.x.{.@X{.@Xv.}.].p.e.*.%.$.$.$.$.$.$.1.1.#.) ) | ^ ) ^ ^.(.C 7 $ -   + X   @ O O ",
"  O > > O = r F q. Xt.:.w.w.:.*.@.O.O.O.X.X.X.) X.X.X.X.X.) ) ) ( ^ { } W.S.p % = $ + O o X O   O O ",
"  O O O O + $ $ e c D.F.' P Q ^ H ! / +.+.+.X.O./ ! ! / ^ P U ' | J.L.Z.k 6 $ = o X             O O ",
"O O O O O O . . $ * 7 g Z S.] ' ` ` ` I L L U U I [ [ I ' J.W.W.K c s 5 . . . . O               O O ",
"    X X X O     + + . & 5 w g C A.D.G.} { } G.G.G.G.L.H.D.Z g e 5 % . $ - $ + O + O             O O ",
"            X X X     . . . % % 5 w p p h g g g f p e w 5 % $ = . + - . .     O O O O               ",
"            X O X X O O     . .   + + . . $ . . $ $ .   . .       X . . .   O O O O                 ",
"    X X         O O O O O     X   X       + .     . - .     O O       . + O O O O O                 ",
"              O   X   O + O O O       O O O             O O O O O + .     O > > O O                 ",
"      .           o X         O                 O O O O O O     O O O O O O                     O O ",
"                            O O O O                                   O                         O O ",
"                            O O O                                                               O O ",
"                                                          O O O O O                             O O ",
"      O O                                           O O O O O O O O           O               O O O ",
"    O O O                                           O O O O O O O O                     O O O       ",
"                                                          O O O O O                     O O         ",
"                            O O   O O                           O O O               O O O O         ",
"                O O O O O O O O O O O O                             O O O O       O O O O O         ",
"                                                                                                    ",
"                                                                                                    "
};
