/* XPM */
static char *openmoutd1709464807[] = {
/* columns rows colors chars-per-pixel */
"50 50 242 2 ",
"   c #010102",
".  c #0B0302",
"X  c #040903",
"o  c #0B0A04",
"O  c #03020A",
"+  c #0A030A",
"@  c #05090C",
"#  c #0B0A09",
"$  c #130301",
"%  c #190401",
"&  c #120904",
"*  c #1A0A00",
"=  c #11030A",
"-  c #120B0B",
";  c #0D110A",
":  c #1C1701",
">  c #030112",
",  c #0B0414",
"<  c #0C0915",
"1  c #160913",
"2  c #151415",
"3  c #231300",
"4  c #251B06",
"5  c #311C02",
"6  c #21170E",
"7  c #172317",
"8  c #35240B",
"9  c #382804",
"0  c #3C3209",
"q  c #302D13",
"w  c #191523",
"e  c #272624",
"r  c #343329",
"t  c #43340D",
"y  c #4B3A0B",
"u  c #473816",
"i  c #523D13",
"p  c #543D2B",
"a  c #5A491A",
"s  c #585417",
"d  c #48430C",
"f  c #70591B",
"g  c #7B691F",
"h  c #5D4D26",
"j  c #5F552B",
"k  c #685922",
"l  c #614F29",
"z  c #7A6829",
"x  c #7E6934",
"c  c #5A5D57",
"v  c #484745",
"b  c #76684A",
"n  c #787973",
"m  c #A37F1F",
"M  c #816E3A",
"N  c #877836",
"B  c #827025",
"V  c #A67F20",
"C  c #8D7749",
"Z  c #807C7B",
"A  c #7F8078",
"S  c #A7841D",
"D  c #B6951E",
"F  c #AF8D1F",
"G  c #BEA11F",
"H  c #93853A",
"J  c #A68323",
"K  c #AA8524",
"L  c #AC8A24",
"P  c #AD862A",
"I  c #AD8C2A",
"U  c #A58A27",
"Y  c #B18D26",
"T  c #B28C2A",
"R  c #B98E25",
"E  c #AC922D",
"W  c #AB9628",
"Q  c #B39226",
"!  c #BC9424",
"~  c #BD9D26",
"^  c #B4932A",
"/  c #BB952B",
"(  c #B59B2B",
")  c #BC9A2B",
"_  c #B69A23",
"`  c #AA963A",
"'  c #BE9C33",
"]  c #B49935",
"[  c #B08B30",
"{  c #BCA32B",
"}  c #BAA428",
"|  c #B5A639",
" . c #BFB53C",
".. c #C39C22",
"X. c #C0942B",
"o. c #C39D2B",
"O. c #CC9D2C",
"+. c #C19C33",
"@. c #C5A22D",
"#. c #CBA52C",
"$. c #C3AB2B",
"%. c #CDAA2D",
"&. c #CCA725",
"*. c #D1AB2E",
"=. c #D5A52B",
"-. c #CEB22B",
";. c #D5B32D",
":. c #DBB42F",
">. c #D1B728",
",. c #C5A531",
"<. c #CAA533",
"1. c #C4AB33",
"2. c #CDAB32",
"3. c #C8A93A",
"4. c #D3AC32",
"5. c #D8A836",
"6. c #CAB337",
"7. c #D5B232",
"8. c #DBB432",
"9. c #D5BB33",
"0. c #DCBC36",
"q. c #D4BC3B",
"w. c #D6B73B",
"e. c #E3BC2D",
"r. c #E2BC35",
"t. c #E8BA35",
"y. c #E1A637",
"u. c #DBC53A",
"i. c #D9D43B",
"p. c #E2C22D",
"a. c #E4C234",
"s. c #EAC535",
"d. c #EDCA3B",
"f. c #E5C637",
"g. c #F2CE38",
"h. c #E6D738",
"j. c #F4D33A",
"k. c #F4DA3B",
"l. c #F8DA3B",
"z. c #E6D32E",
"x. c #EAE83B",
"c. c #F3EC3B",
"v. c #FBEB3D",
"b. c #F5E538",
"n. c #F8F13A",
"m. c #E2E02D",
"M. c #9C894A",
"N. c #948555",
"B. c #A68F45",
"V. c #AC9C43",
"C. c #AA9348",
"Z. c #B19D43",
"A. c #B19C49",
"S. c #AD9C54",
"D. c #B5A344",
"F. c #BCB248",
"G. c #BAAD59",
"H. c #ABA551",
"J. c #958666",
"K. c #8D9176",
"L. c #B7AA66",
"P. c #B5B162",
"I. c #C3AC47",
"U. c #CAB443",
"Y. c #C6B64B",
"T. c #D4BA41",
"R. c #D8BC48",
"E. c #C3AD57",
"W. c #CBB756",
"Q. c #D3BC58",
"!. c #D0BB62",
"~. c #D8C54B",
"^. c #D7C457",
"/. c #D6CE4D",
"(. c #E8CA43",
"). c #F4CD43",
"_. c #E5D542",
"`. c #E9D947",
"'. c #F6D541",
"]. c #FAD447",
"[. c #FCDB44",
"{. c #F9DD44",
"}. c #E6DA58",
"|. c #EFD153",
" X c #EEE94F",
".X c #F5EA43",
"XX c #FCED45",
"oX c #F3E348",
"OX c #FAED4C",
"+X c #F6E747",
"@X c #FCF343",
"#X c #FFF548",
"$X c #EBE357",
"%X c #F4E556",
"&X c #CAC268",
"*X c #D4C76C",
"=X c #DCCA7C",
"-X c #D3CE74",
";X c #E1CD6C",
":X c #E5D364",
">X c #E3D379",
",X c #EFD873",
"<X c #F7EA65",
"1X c #EEE471",
"2X c #8B8F85",
"3X c #A79E8D",
"4X c #B6AF90",
"5X c #B8B7A8",
"6X c #C9B88F",
"7X c #D1B89A",
"8X c #C8B9A2",
"9X c #CDC49B",
"0X c #F1E891",
"qX c #D4CFA5",
"wX c #E5DDAF",
"eX c #F3E9A9",
"rX c #FDF8AB",
"tX c #ECE4B3",
"yX c #F4E4BA",
"uX c #FDF3BC",
"iX c #FAF8B5",
"pX c #E8D48F",
"aX c #D4CECE",
"sX c #E8DBC8",
"dX c #E7DEDA",
"fX c #DBE2D7",
"gX c #F8EAC4",
"hX c #FFFDCB",
"jX c #E9E7D5",
"kX c #F3E9D8",
"lX c #FBF7DD",
"zX c #F8F9DA",
"xX c #EEEBD4",
"cX c #E9EAE4",
"vX c #FDFFEC",
"bX c #F8F9E5",
"nX c #F6EEFE",
"mX c #ECF3F2",
"MX c #FDFDF4",
"NX c #FCFEFD",
"BX c #F5F7F7",
"VX c #F2ECEE",
/* pixels */
"              O > O               O + > O   .   X O   > @   O @   X X X X   O > O     O O > O     X ",
"              O O               O   O O   X X X     @ +   O X     2       X 2 > O O     O O O   O   ",
"            O   O                   @     o       - +     .   . . + + . .     O O     X O O O   O O ",
"        O     O                   X         -   2 $ . 5 t u i t 8 $ $ $ . . . o           O     O O ",
"          O                     @       . < . = $ t H ` | Y.F.Y.D.V.z 9 % = 1 + O         X     O   ",
"    O O                             ; # O & * 3 N E.F.$.6.{ 6.} 6.6.Y.E.z 5 $ + + o .               ",
"    O                           @       & . t S.W.} { } @.I.' 3._ 1.} } R.` 0 + . +                 ",
"      O O                         O   - . i G.E.( | } @.<.,.&.-.-.@.3. .}  .P.j . . .       . O     ",
"                          O O + > . $ $ t G.F.} ~ ,.o.O.#.#.*.%.$.%.w.%.$.{ F.P.r       2   < O X O ",
"                    O   O   O O   - $ 5 S.H.| { $.1.@.o.o.*.2.-.-.%.@.2.U.| &XtXjX5Xc o .   @ , O   ",
"              X     O O O O       = % N W.| ( { #.#.<.R ! 2.7.-.2.9.>.w.F.pXgXgXxXbXMX2X  2   O O   ",
"                  O   > O +   . o . i Y.] | _ <.%.@.,.R Y ,.7.;.6.>.9.{ !.uXsXdXxXfXcXMXn . @   O O ",
"                    O O O O . . . 4 B.,.( ^ <.4.=.2.O./ L R 4.9.w.0.>.~.pXsXjXmXcXBXmXNXdXe     X   ",
"                    O   +   & . . h E.Q ' ' 2.#.4.2.O.X.T S ,.8.w.9.u.Y.eXdXdXcXmXNXNXBXNXn O   X X ",
"                    O   + . . . 4 M.' ^ ) 1.#.&.4.#.O.X.T V / 2.0.u.3.Q.uXsXcXjXBXmXNXNXBXaXo   X X ",
"                      X   & . . 0 L.] ^ @.&.@.8.5.2.O.X.T K K o.a.q.R.=XyXjXcXbXmXNXBXNXNXdX2 X X X ",
"          O O O       O   + . % z I.W } +.#.#.*.8.%.o.+.Y K K I 5.R.w.>XyXkXkXwXVXvXNXBXNXnX6 O O O ",
"        O O O             O . 3 B.D._ o.,.<.4.8.8.%.o.) T K J P 2.(.w.;XgXkXZ C 8XjXNXNXNXnXe   O O ",
"          O   O     O       . t G.E ) @.,.<.4.0.4.4.o.) ^ K J J D R.q.:XuX8Xb sXwXqXMXBXMXdX2   X   ",
"        O O O O           . . h W.U { @.,.2.7.8.8.%.#./ ^ L J m K 6.(.^.eX6Xh u tXqXlXBXvX5X    X X ",
"        O   O             . $ C D.T o.,.@.2.8.r.7.%.@./ ^ I P J J ^ (._.0XL.J.p 6XqXlXMXzX4X. o X   ",
"          O   O           . 3 M.E ^ o.@.@.7.r.r.:.*.@.! ^ T I K P S 2.`.<X*Xz 7XC 4XbXzXiXL.o O O   ",
"          O O       O   . . 8 S.I ] +.#.#.;.a.r.*.*.o.~ Q T P K L V ~ u.%X:XD.f N.tXhXiX1X&X: X > , ",
"          O         @   # . 0 S.E ^ +.#.%.:.f.r.;.*.o.) Q T J K Y P K 6.OX<X%X0XrXrXrX>X/.}.0 X + > ",
"                        . . y A.I / o.@.*.t.d.:.8.#.@.o.T I L P P T K Q _.+XOXOX$X<X Xi.}.$Xd   #   ",
"                        O $ i D.I / o.@.*.s.d.:.:.*.o.) Y T L K V K K L 0.OX.XOX X Xx..Xi.$Xs #   + ",
"                        . . a A.P ) o.o.9.d.s.8.*.*.o./ T I I L K K L S { OXb..Xc.x.c.k.c.$Xs X     ",
"                        . . a ] P +.o.#.t.g.t.8.8.#.@.o.Q Y T L Y Y K K U h.@X@Xn..Xn.z.z.$XN X o   ",
"                        o . a Z.P +.~ =.(.g.t.r.8.#.o.) ^ T I L Y T K T U } #X@Xx.@Xc.c.v.u.rXK.X o ",
"                        . . a ` P X...4.j.j.p.r.4.*.o.) Q Y Q Y L Y K T J F oX#X@X.Xv.b.k.h.0XzXr   ",
"      O                 O . i V.[ / ..8.].j.r.r.7.=.o.) Q T Y Y I I P I L J q.@Xn.XXv.k.b./.eXvX5Xo ",
"                      O . . t C.[ / ..r.].g.p.r.4.#.o.) Q Y Q Q Y T T J K U ) n.n.b.b.+Xb._.eXvXcXe ",
"                  O       + 8 C.I / ..).].d.u.:.>.<.#.D / ' Y / I / Y Y S I L (.OXn.n.m.x./.rXzXBXc ",
"          X         O     . 3 C [ R #.].'.f.a.8.&.5.D O.L [ L ! ' Q ^ / L E S %.#Xn.c.XX.X}.iXxXNXn ",
"    O           O . O   . . % x ] Y 7.].l.f.u.8.y.O.O.o./ E Z.I.' ^ T / ( I U _ XXn.n.+Xh.:XiXvXvXA ",
"  O                     O + $ h ` Y :.+Xk.p.a.:.=.=.O.X./ C.f B U.,.+.^ _ U U U h.@Xv.+X`.:XiXzXbXA ",
"                          O & 8 B.E ;.[.l.p.t.:.y.y.=.X.[ M.$ 9 W.,.,.' _ ( E E 6.OXb.OXoXY.iXlXBXc ",
"      O               X     $ * N E 7.[.l.p.t.e.y.=.O.+.S.5 % % B Q.{ { _ ( E ^ ~ OXv.b.%X&XtXMXfX7 ",
"                        O O . $ a C.w.[.j.a.t.t.t.5.+.E.i = = % 9 G.6.{ { } ] _ ) '.XX`.}.!.xXMX2X; ",
"                        O .   . 9 B.w.'.g.s.t.t.e.<.Q.M $ 1 $ $ . z ^.{ 1.@.) ~ ~ u.+X<XU N lXBXe   ",
"                    #   @   .   $ B |.d.l.s.t.t.q.~.N :   < . &   4 V.w.1.,...<.} q.OX}.k 3XvXc X   ",
"                      . X O     $ 9 I.[.].d.s.y./.V.:   o   .     . y *X3.&.;.+.G 9.<XG.9XaXv # X   ",
"                          X   o + $ H %X(.'.s.:XH.: . 2 X     O O o $ C ^.9.6.4.-.q.G.3 6 2 >   + . ",
"                  .   +   X     = $ 9 ^.|.].<XB.:       O O .   @   + $ | ~.{ 0.1.^.t +   @ > @     ",
"                  .       X     . . . k 1XQ.k 3 O >   . , ,   @ X > , . 0 &X~.T.;Xx $ w O X   < . . ",
"            O       .         X >   # . 0 8 % . , @ X O > +   O X >   & . 0 P.>XN.% -   @ X ; O . + ",
"          O     O   .     X X X > @ O O o     - +   +     . # O O X   +   o 4 l . . #     X     O . ",
"                O .       X     O O > > @ X   . + @   o X   +   X X   X > <   . + +     @     X O O ",
"                                                                                                    ",
"                                                                                                    "
};
