/* XPM */
static char *openmoutu1709464849[] = {
/* columns rows colors chars-per-pixel */
"50 50 244 2 ",
"   c #010102",
".  c #0B0302",
"X  c #040A03",
"o  c #0A0B03",
"O  c #03020A",
"+  c #0A030B",
"@  c #05090A",
"#  c #0C0B0B",
"$  c #130401",
"%  c #1A0500",
"&  c #150A00",
"*  c #12030A",
"=  c #170A06",
"-  c #191302",
";  c #11100D",
":  c #1A1904",
">  c #030213",
",  c #0B0412",
"<  c #0B0A13",
"1  c #130B16",
"2  c #1A1617",
"3  c #0D1111",
"4  c #231301",
"5  c #291C02",
"6  c #271A08",
"7  c #112210",
"8  c #2B2201",
"9  c #272200",
"0  c #352304",
"q  c #3A2A06",
"w  c #373403",
"e  c #24201F",
"r  c #1F2420",
"t  c #383827",
"y  c #282728",
"u  c #432E08",
"i  c #46380A",
"p  c #463614",
"a  c #543E28",
"s  c #4E4512",
"d  c #594918",
"f  c #524D0B",
"g  c #5B542A",
"h  c #564625",
"j  c #604B21",
"k  c #725D24",
"l  c #6B5E29",
"z  c #6C6423",
"x  c #786626",
"c  c #7C6B30",
"v  c #7A7A32",
"b  c #695516",
"n  c #545455",
"m  c #586553",
"M  c #6F6144",
"N  c #74786F",
"B  c #7E7A7B",
"V  c #A17F1C",
"C  c #826C38",
"Z  c #877739",
"A  c #867229",
"S  c #A17E22",
"D  c #83774C",
"F  c #A5831C",
"G  c #A8881C",
"H  c #B5991D",
"J  c #AC9217",
"K  c #9B8E2C",
"L  c #A58221",
"P  c #AB8525",
"I  c #AD8B25",
"U  c #AD8A2A",
"Y  c #A88829",
"T  c #B18D25",
"R  c #B18C2A",
"E  c #B18524",
"W  c #AE932C",
"Q  c #AD9224",
"!  c #B59226",
"~  c #BB9326",
"^  c #BC9C26",
"/  c #B5932A",
"(  c #BC952B",
")  c #B59B2A",
"_  c #BD9B2A",
"`  c #B39B25",
"'  c #AB8932",
"]  c #B18E33",
"[  c #AD9333",
"{  c #AA9A37",
"}  c #B39C34",
"|  c #BB9A31",
" . c #B59839",
".. c #BCA425",
"X. c #BBA32D",
"o. c #BFAA2B",
"O. c #B9A735",
"+. c #C49B24",
"@. c #C1962C",
"#. c #C39D2C",
"$. c #C79B2A",
"%. c #C79A34",
"&. c #C3A32D",
"*. c #CAA52C",
"=. c #C4AB2D",
"-. c #CDAA2D",
";. c #C7A525",
":. c #D2AC2D",
">. c #D8A12E",
",. c #CDB32D",
"<. c #CAB327",
"1. c #D4B32D",
"2. c #DAB82C",
"3. c #C4A331",
"4. c #CAA531",
"5. c #C4AC33",
"6. c #CCAC32",
"7. c #C4AC39",
"8. c #CAAA3A",
"9. c #D3AC32",
"0. c #D7A734",
"q. c #CBB232",
"w. c #CBB23A",
"e. c #C8B437",
"r. c #D6B232",
"t. c #DAB432",
"y. c #D3BA34",
"u. c #DDBA34",
"i. c #D3B23B",
"p. c #D7BA39",
"a. c #E2A934",
"s. c #E1BD34",
"d. c #EBBE33",
"f. c #E3B63A",
"g. c #E0B028",
"h. c #D5C12E",
"j. c #D9C237",
"k. c #DBD333",
"l. c #E3C12E",
"z. c #E4C332",
"x. c #ECC335",
"c. c #E5C33A",
"v. c #EAC43A",
"b. c #E9CA38",
"n. c #F1CE3A",
"m. c #ECDD35",
"M. c #E4D638",
"N. c #F3D33A",
"B. c #F6D93A",
"V. c #EEED3C",
"C. c #E3E238",
"Z. c #F3E33A",
"A. c #F9E23C",
"S. c #F6EB3B",
"D. c #F9F23D",
"F. c #9C8445",
"G. c #948759",
"H. c #A58E49",
"J. c #AA9647",
"K. c #B69C46",
"L. c #AD9D55",
"P. c #B9A746",
"I. c #B4A65B",
"U. c #BDB456",
"Y. c #AFAA59",
"T. c #86897F",
"R. c #95876D",
"E. c #AC9E77",
"W. c #B3A86E",
"Q. c #C2AC47",
"!. c #C7B846",
"~. c #D8BC46",
"^. c #C8AF54",
"/. c #CDBA54",
"(. c #C5B457",
"). c #D4BE54",
"_. c #CCBA67",
"`. c #D8BD66",
"'. c #D9C746",
"]. c #DCD549",
"[. c #D6C659",
"{. c #CFCE57",
"}. c #E9C945",
"|. c #E7D744",
" X c #F8D645",
".X c #E8CF58",
"XX c #EED451",
"oX c #ECE646",
"OX c #FDE345",
"+X c #F5EB42",
"@X c #FCED43",
"#X c #F8E64A",
"$X c #FCF243",
"%X c #FEF24A",
"&X c #EEE456",
"*X c #F7EA56",
"=X c #D7C565",
"-X c #DCD762",
";X c #D0C66B",
":X c #E5DA66",
">X c #EBD273",
",X c #EBE667",
"<X c #F5E66B",
"1X c #EBE278",
"2X c #F5E97D",
"3X c #787580",
"4X c #B1AB8F",
"5X c #BBBBB5",
"6X c #8A908C",
"7X c #CABB96",
"8X c #C7B88F",
"9X c #C3BFB4",
"0X c #D5CE93",
"qX c #E4CF87",
"wX c #FAEB98",
"eX c #EEE89C",
"rX c #DCD1A4",
"tX c #E6DDBD",
"yX c #E0DCAD",
"uX c #F6E8A8",
"iX c #FBF7AB",
"pX c #ECE2B5",
"aX c #F6E6B7",
"sX c #FDF8B7",
"dX c #D4CFCC",
"fX c #E5D6D2",
"gX c #DFE0C1",
"hX c #EBE4C8",
"jX c #FAE9C5",
"kX c #EAE8D8",
"lX c #FDFCDB",
"zX c #F7F6DB",
"xX c #F7EDCD",
"cX c #E3DEE2",
"vX c #E8E9E6",
"bX c #FCFBE4",
"nX c #F7F8E8",
"mX c #F2EFF4",
"MX c #EEF5F3",
"NX c #F4FDF4",
"BX c #FEFDF3",
"VX c #FCFDFE",
"CX c #F7F7F8",
"ZX c #EFE8F0",
/* pixels */
"      O   O       O     O               X         O     O O                                         ",
"O   .               O X   O   O                 .     O     O O                                     ",
"O   .     X     .   .   2 , O X X     o           X O @ O # O > O O X                               ",
"+       @   O   $ + g 8       X X   @ . .       O + .   3     > O O X X X X   .       O O           ",
"+ .   # @ O   1 % G.qXU.q . o O @ @ O O + O O   > * $ % 8 w   O + O   X   X   + .     O             ",
"    3 O < O ; % C =XO.-X=X0 $ * O @ O O , + O O 1 . 4 k [.2Xl * . +                                 ",
". . # O O ; $ u ).e.,.6.'.P.$ .   X   O O     X   = J.<XXX|./.q $ .       X                         ",
".   O > 3 2 4 W.'.<.i.<.<.[.C $ o     X   X o X : Y..X}. X X:XL $ .   O X O X                       ",
"  o ; n dX5XP.&Xe.&.;.9.8.7.[.f o + . . O X   : K [.f.d.x.N.OX~.u . + o   @ O                       ",
".   n nX4Xz ,X*Xh.=.&.&.3.o./.J.- + . . ,   - Z '.~.d.d.x.B.b..Xc % +   X > X o                     ",
"  e mXlXK K *X+Xc._ #.^ &.o.7.[.z * $ . * $ c /.i.f.d.d.d.B.n.u.H.0 .   O O                   O     ",
"X 6XBXtX_..X X@X XJ | ^ ^ =.^ w.(.0 * $ $ p ^.4.>.f.g.d.x.N. Xr.J.d & . O O O                       ",
"7 vXBXaX=X&XZ.@X%X` [ { ` ..| &.[.A % * u H.%.$.a.a.2.x.x.n.OXy.[ Z 4 .   O                         ",
"m NXbXaX[.oXA.A.%X<.Q [ W ` X.&.7.!.u % D K.@.>.>.0.t.j.c.N.OXq.I H.0 $   O                 O O     ",
"N NXzXsX=X].Z.D.$XM.G ' Q ` / ( ^ ~.x b  . .~ >.a.0.2.l.b.N.OXr./  .j & .   O               O O     ",
"T.nXlXsX-XoXV.S.$X$XJ [ L ` ! / ( ! ^.} I ( +.$.>.>.u.l.x.B.B.-.] ] c $ &         O         O O     ",
"3XVXzXsX].oXS.D.D.$X,.L / G / ! ) / | T ( G @.@.-.:.t.z.z. X X;.H ' H.4 .       + +                 ",
"n BXbXiX-XV.m.D.$X@X|.F R L I / / R / T ( ! #.&.-.1.2.u.b. X X+.@.' H.5 +     O             O       ",
"y MXbXiX].+XB.Z.@X@X%XH Y Y L / T I / I T ! #.&.-.t.f.l.n. Xf.+.( ' J.i $                   O       ",
"  5XlXeX].m.@XA.S.@X$Xy.L ' F P R R R T T ! ( #.*.:.t.d.N. Xt.+.( U  .s .                     O     ",
"  t bXeX].A.B.A.V.$XD.+XQ Y U I T R U / ! ! _ #.*.r.s.s.N. X:.$.@.U  .s . O                         ",
"  o T.iXk.B.B.$XV.$XD.%Xo.L ' I E I U U U ! ( &.:.t.t.z.N.x.-.%.@.U } d $ =                         ",
"o   o v &Xm.Z.V.V.V.$X$X|.G E T R U U U Q ! ( #.*.t.t.x.n.s.*.@.@.U  .d . .                         ",
"  X X b &XZ.m.V.V.V.D.+X#XX.S G E P E U / I _ &.;.t.t.v.n.2.;.@.@.U K.d $                           ",
". o o g :Xm.V.C.+XoXD.+X%Xh.I E E Y E U I / _ #.>.t.2.x.v.:.*.#.@.U K.s &     +                     ",
"  o   s ,Xk.].&X<X<X*X%XoX|.) P Y E P Y T T %.#.-.1.t.v.c.:.*.^ ( U L.i . .   O                     ",
"+ O   w -X].:XiXiXwX2X<X&XoX5.G P R L U R T #.#.*.t.t.x.u.*.4._ ( U I.q . #   O       O             ",
", O + 9 {.1XiXlXaXG.k K.,X&X'.H P E Y E R R _ #.9.t.d.c.r.*.*.#.( U L.5 . .   O         O O         ",
"O   + & W.iXlXlXE.R.8XD ;X<XXX1.P F P E U / ( &.:.9.s.f.:.*.3.#.! [ H.4 .             O             ",
"O #     4XlXnXzXrX8Xa D W.wX}.}./ F Y Y U / ~ *.:.t.u.t.-.*.3._ Q K.D &     O O       O O O         ",
"X o     rXBXCXnXyXtXa h 7XsX[.}.8.G F L E / ^ &.:.t.u.t.-.4.&._ W ^.j $     O       O O O           ",
"@   O 1 dXVXCXBX0XtXhXM 7XsX:Xp.~.! V Y P T #.$.*.r.u.:.-.4.X.^ W ^.q $   .           O O O         ",
"O @   2 mXVXVXVXkX4XD D ZXjX>Xi.}.4.F S R T ( &.4.t.1.:.0.*.X.) X.K 6 + X   O     O O   O O O       ",
"O   o e CXmXVXVXBXbXgXhXzXjX>X~.f.r./ L P T ( 4.0.t.:.9.#.#._ W P.c % . o   @ O       O O           ",
"@   X 2 cXCXVXVXNXNXbXkXxXpX`./.u.'.4.P P R @.$.:.:.r.$.4.3.) ] W.p . . .               O           ",
"X ;     dXCXVXCXNXMXvXkXkXjX_.!.u.p.i.R S E %.$.:.:.-.6.4.@.#.| G.4 $ . + .   O             O       ",
"X     . D VXCXVXVXMXcXZXfXaX^.r.h.u.p.4.P E %.$.:.:.;.6.#.^ T ^.g . $ .   +   O                     ",
"  o     y mXVXVXMXZXmXcXjXqX'.2.y.1.y.i.~ E @.$.4.:.6.3.^ ) Q.J.5 $ . .   O O O                     ",
"X O O @ O N CXvXkXcXkXgXuX`.8.<.r.q.1.r.#.T ~ #.4.*.&.X.) } _.i . $   + X O ,                       ",
"O O O O 3 o T.BXnXkXhXsXqXQ.w.y.w.,.<.1.0.~ ! *.0.*.o.` } =XC % =   + O   > > O                     ",
"  + > +     ; n 5XgXsXU.P.O.e.q.q.-.-.9.9.+.+.#.=.X.X.O.P.L.8 * . #   O O O X                       ",
"X O O , # ;   o   t W.U.O.<.q.-.-.6.r.:.-.4.3.#.o...} Q.Y.q % *       O O O O                       ",
"    O +   o     o . g I.!.H q.6.-.,.6.-.*.4.&.^ o.` P.I.j . = .                           O O O     ",
"              X +   & i J./.X.` ....&.O.8.7.3.o.O./.I.p . .   O                               O     ",
"  O     O       + * . $ 8 x (./.e.5.o.` o.o.5.e.U.Z 4 & o   3 X                             O O     ",
"O X       O     O + # * = & 0 x J.I./.'.U.P.{ Z w & $   #                                 O         ",
"O O     O @           +   . & & % 0 p i i w 6 $ $ = . 1 O     O                                     ",
"O O O X O O         .     . + , .   . . . . . . +       X O O X                       O             ",
"      O O O     X O > > @ X   X o X X O O O O     X X X X O O O O O O         O O O                 ",
"  X O O O O       O > > X   X O X   X X O O O O           O O O O               O O O               "
};
