/* XPM */
static char *_fdec969dfcb4739dc05a94de8028895TK5yKqFKNsnahwf5[] = {
/* columns rows colors chars-per-pixel */
"50 50 244 2 ",
"   c #030302",
".  c #0A0301",
"X  c #040901",
"o  c #0C0A02",
"O  c #030309",
"+  c #0A040B",
"@  c #03090B",
"#  c #09080C",
"$  c #130700",
"%  c #130C01",
"&  c #180C00",
"*  c #141204",
"=  c #1B1302",
"-  c #191709",
";  c #070012",
":  c #1B1C16",
">  c #0F1002",
",  c #231B03",
"<  c #2A1E07",
"1  c #251905",
"2  c #2E2303",
"3  c #23230C",
"4  c #2C2806",
"5  c #312504",
"6  c #332C03",
"7  c #3B2E00",
"8  c #372C0A",
"9  c #343103",
"0  c #3B3201",
"q  c #3B350C",
"w  c #39350A",
"e  c #2D2917",
"r  c #363414",
"t  c #3D3916",
"y  c #292923",
"u  c #35362A",
"i  c #3C3B36",
"p  c #423300",
"a  c #443B01",
"s  c #4B3A00",
"d  c #433C0E",
"f  c #4B360B",
"g  c #563D0A",
"h  c #493917",
"j  c #533A11",
"k  c #563918",
"l  c #613A12",
"z  c #563C22",
"x  c #4A4306",
"c  c #52430D",
"v  c #5A4C08",
"b  c #484416",
"n  c #5B4B14",
"m  c #584519",
"M  c #5D5317",
"N  c #5B540A",
"B  c #674B0D",
"V  c #635600",
"C  c #63491E",
"Z  c #625616",
"A  c #645915",
"S  c #655919",
"D  c #6B5C1C",
"F  c #6A551B",
"G  c #746407",
"H  c #696319",
"J  c #786E13",
"K  c #78711C",
"L  c #4D4322",
"P  c #4A4624",
"I  c #534926",
"U  c #534C2B",
"Y  c #564327",
"T  c #5A522F",
"R  c #4A4637",
"E  c #5A4D33",
"W  c #554C37",
"Q  c #5E5332",
"!  c #54523B",
"~  c #5A553C",
"^  c #5C5639",
"/  c #4D5031",
"(  c #654826",
")  c #6A5523",
"_  c #6C5C22",
"`  c #655826",
"'  c #725D23",
"]  c #745727",
"[  c #654B36",
"{  c #655737",
"}  c #775E38",
"|  c #724822",
" . c #6D6229",
".. c #746124",
"X. c #756626",
"o. c #766A35",
"O. c #7C703E",
"+. c #514D49",
"@. c #565643",
"#. c #5B5443",
"$. c #565943",
"%. c #5C5A44",
"&. c #5C5C4B",
"*. c #59534A",
"=. c #5D5D53",
"-. c #5B5650",
";. c #4F4F43",
":. c #654E42",
">. c #625945",
",. c #635C4A",
"<. c #655846",
"1. c #635E53",
"2. c #695F53",
"3. c #755C46",
"4. c #5E614E",
"5. c #64634D",
"6. c #6B644C",
"7. c #6B694F",
"8. c #6B6544",
"9. c #646453",
"0. c #6A6455",
"q. c #6A6A55",
"w. c #6A665B",
"e. c #6C6C5B",
"r. c #66685B",
"t. c #736D5C",
"y. c #716859",
"u. c #72735E",
"i. c #76755A",
"p. c #746140",
"a. c #6D6C61",
"s. c #716D62",
"d. c #736E68",
"f. c #6F7565",
"g. c #757364",
"h. c #767569",
"j. c #79766A",
"k. c #7B7A6D",
"l. c #777766",
"z. c #797A72",
"x. c #867B06",
"c. c #887A18",
"v. c #917F01",
"b. c #8B7B28",
"n. c #877836",
"m. c #9C8C06",
"M. c #95830B",
"N. c #9C8909",
"B. c #988506",
"V. c #8E8417",
"C. c #9D8813",
"Z. c #978818",
"A. c #9E921D",
"S. c #8F8106",
"D. c #A38C0C",
"F. c #A38E07",
"G. c #A59305",
"H. c #AC9606",
"J. c #A69409",
"K. c #AC950B",
"L. c #AC990D",
"P. c #A79906",
"I. c #B39D05",
"U. c #B1960A",
"Y. c #B29B0A",
"T. c #B39809",
"R. c #A78C13",
"E. c #AE9A13",
"W. c #AA9817",
"Q. c #B29B11",
"!. c #B39C1C",
"~. c #B6A205",
"^. c #B5A10B",
"/. c #BBA50A",
"(. c #BEA90C",
"). c #B8A407",
"_. c #B8A51B",
"`. c #8C8126",
"'. c #9C8A23",
"]. c #988C27",
"[. c #9B9527",
"{. c #968932",
"}. c #9B933A",
"|. c #8A833F",
" X c #A49422",
".X c #A99927",
"XX c #B29E27",
"oX c #A79634",
"OX c #BBA526",
"+X c #ACA336",
"@X c #B8A737",
"#X c #B0A92D",
"$X c #C3AC0B",
"%X c #C4AF04",
"&X c #CAB20E",
"*X c #C7B109",
"=X c #D2B80E",
"-X c #C7AE16",
";X c #CBB517",
":X c #D3B413",
">X c #D3BB13",
",X c #D8BC18",
"<X c #D1AF10",
"1X c #C7B326",
"2X c #C8B638",
"3X c #CFB62F",
"4X c #D9C71A",
"5X c #D9C00E",
"6X c #E1C71D",
"7X c #DEC726",
"8X c #DDC63C",
"9X c #E8CC26",
"0X c #EBD728",
"qX c #F3DB30",
"wX c #F7D933",
"eX c #F2D82E",
"rX c #F7E238",
"tX c #948E4C",
"yX c #ACAA56",
"uX c #A7A244",
"iX c #8E8A6C",
"pX c #A49B6D",
"aX c #A9A364",
"sX c #B2A968",
"dX c #B9B971",
"fX c #C7B759",
"gX c #807981",
"hX c #AD9F85",
"jX c #B2AB93",
"kX c #B5B2AA",
"lX c #A7A1A3",
"zX c #97978F",
"xX c #C1B589",
"cX c #C3BD99",
"vX c #C6BCB7",
"bX c #C7BCA0",
"nX c #C5C093",
"mX c #C9C4B8",
"MX c #D3CCB9",
"NX c #C7C3A6",
"BX c #D1C6C3",
"VX c #D5D3C7",
"CX c #D4CECC",
"ZX c #E0DDD6",
/* pixels */
"            O O O O O O         O O O O O @ O O O                         O O O       O O           ",
"    O       O O O   O O             O O O O O                           O O O           O           ",
"    O O             O O           .       +           X     + O O   O O                             ",
"    O O             O                   .                   + O O O O O                             ",
"  O O O O                               X                 X     O O O O                             ",
"  O O O O                       O   .   . $ = , 4 2 , % o o     X O                         O O     ",
"    O O O         O             . & 7 V c. X@X2XOX2X@X@X'.J V 2 o O         O O             O O O   ",
"    O O O         O           . . { fX2X1X;X3X<X:X:X$X;X1X2XfXtX% .         O O             O O O   ",
"    O O + O O O O #       - y     o `.1X$X&X&X<X:X,X&X$X-X2XH       - u     o           O O   O     ",
"X   O O O O O O O       e ;.+.:   X =  X;X%X=X:X:X&X>X;X1XV .   . * R j.r.*   o       O             ",
"      O   O O       . =.mXg.u u :   . x 1X%X&X>X,X>X%X;XG $ . X : u y u &.jXu   o   + O   O         ",
"                o   w.ZXVXVXkX=.u - . $ W.&X>X4X4X4X5X3Xs . * y R =.zXkXmXVXNXP   o     +     X     ",
"    O O .   . .   8.MXBXZXkXi   y +.e 7 OX7X4X0X0X0X0X7XG 2 U iX* o =.BXVXMXMXcXt   . . +           ",
"X   O O   . .   b nXMXBXvX:     : MX_ v 1X6XeXeX0XqXeXwXOXb.aXhX      +.VXMXMXcXaX6 o .   O         ",
"X   O O   o . 4 yXdXNXCXgX#     iXxX X-X9X0X0XrXrXqXwXeX9X8X@XsX/       kXBXBXbXyX].%   O # O       ",
"    O O o . o |.uXyXNXmXlXy e iXsXoX1X=X=X6XqXeXqXqXwX9X6X,X1X+XtX5.e +.vXvXvXxX[.#XH . o O O O O   ",
"O O     $ . v @X X}.pXjXkXhXpXtX X_.-X&X=X,X6X6X0X9X9X6X,X;X-X_. X}.pXjXjXjXhXtX.XW.+X7   O     O   ",
"O #   . . = '.!._.Z.n.O.O.o.`. XQ./.$X$X&X&X>X>X>X>X>X>X;X&X$X(._.A.b.o. .o.n.`.W.L.XXJ . .     O   ",
"O O     . c +XK.K.!..X'.'. X!.Q.^.^./.(.$X$X$X&X&X&X*X$X$X(./././.^.XX.X].]. XW.E.K.E.oX5 .     O   ",
"    #   $ b.W.K.K.K.E.E.E.Y.Y.I.Y.Y.Y.^././.(.$X$X$X(.(./.).^.~.I.I.Q.W.W.W.L.Y.K.K.K..XD . .       ",
"  X     6 {.Z.R.R.R.F.G.K.K.K.U.Y.^.^.I.I.~.).~.~.~.~.~.~.~.^.^.Y.T.Q.E.K.J.G.G.R.R.D.C.{.& .       ",
"    O   v ].Z.C.N.D.J.J.J.L.Q.K.K.Y.Y.Y.Y.I.I.I.I.I.I.I.I.I.Y.Y.U.U.K.K.G.G.F.F.D.R.N.C.].6         ",
"    +   H V.M.N.D.N.N.F.G.F.J.Q.K.K.U.Y.Y.Y.T.Y.Y.Y.Y.Y.Y.Y.U.U.U.Y.Y.L.P.G.m.N.N.C.M.Z.V.x   O     ",
"      o K x.x.B.S.B.N.m.J.L.L.J.E.K.K.L.U.K.H.Y.Y.Y.Y.K.K.K.K.K.H.H.P.P.P.G.m.N.N.M.M.x.V.N   +     ",
"    . % K x.x.S.S.S.B.N.K.P.Y.P.K.J.J.G.G.G.G.K.P.G.L.G.G.G.J.G.K.K.L.L.J.J.m.B.v.M.x.x.c.A   O     ",
"  O   & X.J c.c.V.V.Z.'..X.XXX.X X[. XA. X X X X X X.X X XA.A. X X.XXXXX.X XA.Z.c.c.c.J K M . O O   ",
"O O   $ d c m m n v F F D ...._ _ S Z Z D S S S Z A S A S S Z D ) ' .. . .` M N M n v c d t   O O   ",
"O O . $ 2 b R R W I E Q Q { { ^ U I P I U I L I h h I I I U U I E { ^ ^ ^ W P P E E L U r 1   O O   ",
"    . % 6 T ,.1.e.5.7.i.i.i.l.l.5.7.%.6.6.6.5.6.! ! 6.5.6.q.q.~ 7.i.i.u.e.q.q.5.e.0.,.6.P 3 X       ",
"      o w b &.r.r.9.5.u.u.u.f.f.9.u.9.e.e.u.e.t.&.%.e.e.e.e.e.$.5.u.g.l.r.e.e.=.e.w.,.,.t r         ",
"O O . . t w %.a.a.a.9.i.g.g.j.e.e.l.e.e.h.h.j.s.w.w.g.k.h.j.e.q.9.l.h.z.r.e.s.&.s.t.,.^ h t   o     ",
"O O O   q b E e.w.s.1.t.t.g.l.e.e.k.g.w.k.j.k.a.a.g.w.k.h.k.w.l.0.l.h.h.9.e.g.&.y.0.6.h T , . .     ",
"  @     , { d 8.y.0.2.0.e.e.e.4.u.g.l.9.j.g.k.w.d.h.w.j.j.j.1.j.w.w.g.q.&.e.a.-.2.y.L I { . .       ",
"        . Y ` d p.6.2.-.9.e.&.$.e.t.u.9.e.s.a.=.w.s.1.s.g.0.9.g.w.*.e.9.@.9.e.>.6.E k o.5 o         ",
"O     X   , ` ) j p.<.#.9.&.! >.5.5.9.&.&.t.q.5.e.q.%.9.e.@.9.9.9.*.1.@.*.0.<.} j g } m &   X       ",
"            d ` ` f ( { :.,.#.>.&.&.4.&.! 5.%.! 5.5.@.&.5.! 9.4.9.R *.*.:.3.] g B ' n 8 .   X       ",
"    O O .   , d v ' n f [ [ U ~ %.&.&.&./ 5.~ %.5.5.&.@.@.@.&.$.$.! W :.[ k l B D x b o     O O O   ",
"#   O +     . w x x F ] j h k Q { >.>.>.W ~ ! %.#.&.%.W W <.>.#.{ T z k k | ] B a x 4 X   O + O O   ",
"O + O     o   & h j p c ) ) C f j k Y [ [ E W #.>.<.<.Y Y [ ( z j j j ) ] n s a x 9     O + O O     ",
"O O   @     . . & h d p a s n ) ] | ( m m h h Y L I Y f k C ( ( ] ] F g p p 0 d w o     O O         ",
"    O O O O O     , q a 0 0 p p f c n ) ' ' ........X...' ) ( n s p 7 p p p q r X     O O   .       ",
"    O . + O         = 9 d 0 7 7 0 9 7 7 7 p s s s s p p 0 0 0 7 0 0 0 7 0 q 4 %     O O             ",
"    O   .       O     * 4 8 w 8 0 0 0 0 0 0 0 9 0 0 0 0 0 0 0 7 7 7 0 w 4 3 >         O O           ",
"    O           O O     X - e 8 5 5 5 5 6 6 6 6 6 6 6 6 7 6 5 5 8 2 4 3 -                           ",
"                            % - < 2 2 2 2 2 5 8 5 5 5 2 2 5 5 2 2 1 - o                             ",
"O O         O O               . $ = = 1 1 < < < < < < < 1 , , = % $ .                         O O   ",
"; O         O O O                     . $ % = = = = = * * o o                 O O           O O O   ",
"; O         O O O O             O O O         . o .             O O         . O O O         O   O   ",
"O O         O O O                                               O             O O           O O     ",
"                                                                                                    "
};
