/* XPM */
static char *wallpaper2you_4545991709575783[] = {
/* columns rows colors chars-per-pixel */
"50 50 199 2 ",
"   c #010002",
".  c #080806",
"X  c #04030B",
"o  c #0A060D",
"O  c #040B0C",
"+  c #0A0B0D",
"@  c #14030D",
"#  c #1A000E",
"$  c #170E05",
"%  c #071307",
"&  c #121500",
"*  c #10130C",
"=  c #040313",
"-  c #090416",
";  c #010C13",
":  c #0B0B13",
">  c #03061A",
",  c #0B031A",
"<  c #010B1A",
"1  c #0C0C1B",
"2  c #1E0412",
"3  c #190D16",
"4  c #13011C",
"5  c #120C1C",
"6  c #140A16",
"7  c #081113",
"8  c #061011",
"9  c #181618",
"0  c #26030D",
"q  c #3D000B",
"w  c #32090A",
"e  c #231F00",
"r  c #2F0314",
"t  c #230D17",
"y  c #310414",
"u  c #2A1211",
"i  c #1C2101",
"p  c #202700",
"a  c #352406",
"s  c #0E0523",
"d  c #020B22",
"f  c #0C0A22",
"g  c #040D28",
"h  c #0D0A2B",
"j  c #0D072B",
"k  c #130423",
"l  c #170B28",
"z  c #0C1223",
"x  c #01132B",
"c  c #051127",
"v  c #131426",
"b  c #0A0C30",
"n  c #000F33",
"m  c #001C33",
"M  c #061538",
"N  c #161E31",
"B  c #260E2E",
"V  c #283130",
"C  c #353036",
"Z  c #41010A",
"A  c #430C11",
"S  c #541A04",
"D  c #64150E",
"F  c #66190F",
"G  c #6A1C0E",
"H  c #651610",
"J  c #691910",
"K  c #472C0F",
"L  c #493E00",
"P  c #523F00",
"I  c #553015",
"U  c #5C2C15",
"Y  c #6A2412",
"T  c #433F34",
"R  c #37402B",
"E  c #37562A",
"W  c #484603",
"Q  c #525208",
"!  c #424010",
"~  c #474326",
"^  c #103440",
"/  c #22324B",
"(  c #283D50",
")  c #224642",
"_  c #364953",
"`  c #394D54",
"'  c #354D59",
"]  c #374356",
"[  c #3C5157",
"{  c #3D525C",
"}  c #2C4C59",
"|  c #334F67",
" . c #2A586C",
".. c #2B5E79",
"X. c #335868",
"o. c #35687D",
"O. c #3D7A68",
"+. c #416178",
"@. c #495273",
"#. c #933B0E",
"$. c #963D11",
"%. c #95400E",
"&. c #9B410D",
"*. c #9F4510",
"=. c #995114",
"-. c #A24C13",
";. c #A35117",
":. c #83691F",
">. c #9B762F",
",. c #8D7B3A",
"<. c #95763C",
"1. c #957A3A",
"2. c #AF7B38",
"3. c #6E9D6E",
"4. c #6F9E70",
"5. c #609672",
"6. c #709E70",
"7. c #6AA06F",
"8. c #68A272",
"9. c #79AA73",
"0. c #77B279",
"q. c #A0833F",
"w. c #8F9D48",
"e. c #8A975C",
"r. c #8B9A5D",
"t. c #929C5E",
"y. c #949C49",
"u. c #A48741",
"i. c #83A75F",
"p. c #93A559",
"a. c #B8A65B",
"s. c #A0B45B",
"d. c #B2AC55",
"f. c #8D9762",
"g. c #869C63",
"h. c #959D74",
"j. c #88AA63",
"k. c #91A661",
"l. c #8CBA6F",
"z. c #D68F4F",
"x. c #D4934F",
"c. c #D68F51",
"v. c #D69151",
"b. c #D99253",
"n. c #DE9852",
"m. c #E69E56",
"M. c #C2BE5D",
"N. c #D1B85E",
"B. c #EDA55B",
"V. c #DDB963",
"C. c #EFAB60",
"Z. c #F3B86A",
"A. c #9AC478",
"S. c #B2C162",
"D. c #C6C769",
"F. c #CBCE7F",
"G. c #D0D074",
"H. c #F7C974",
"J. c #2D6580",
"K. c #306682",
"L. c #3F7C91",
"P. c #4B708A",
"I. c #4C6F8F",
"U. c #607E98",
"Y. c #42828C",
"T. c #5A9B97",
"R. c #4CA39D",
"E. c #75A78E",
"W. c #75A98E",
"Q. c #79AB8D",
"!. c #7BBF84",
"~. c #6FAA92",
"^. c #61AF9F",
"/. c #75AA91",
"(. c #578AA7",
"). c #53AABE",
"_. c #51ADB7",
"`. c #688FB0",
"'. c #67BEC9",
"]. c #72CADE",
"[. c #74C2C4",
"{. c #78CCE4",
"}. c #82B5A2",
"|. c #88BCB0",
" X c #9AD09F",
".X c #85C48D",
"XX c #B4D588",
"oX c #ABD291",
"OX c #94D0AE",
"+X c #96DBBF",
"@X c #97CCA2",
"#X c #B4E3AF",
"$X c #D4DA9C",
"%X c #CEE190",
"&X c #C8E1A0",
"*X c #90D5D2",
"=X c #8DCBD3",
"-X c #80CDE7",
";X c #90D6EF",
/* pixels */
"                                          .                                                         ",
"          .                                                                                         ",
"                                                                                                    ",
"                                                                                                    ",
".                                             .                                                     ",
"        .           .                     .                                                         ",
"          .           .                                                                             ",
"                                .                                                                   ",
"                X                                                                                   ",
"      .                           X                                 X                               ",
"X         X X       .     X   X X       X X X         X X     X     X       X   X         X         ",
"    X X X     X X X   X X   X   X   X   X     X   X X       X     X     X     X   X X   X   X       ",
"X X X X X X X X X X X X X X X X X X X   X X X   X   X   X X X   X   X X X   X   X   X X     X   X   ",
"X X X X X X X X X X X X X X X X X X X X X X X X X X X X X X X X   X X   X X   X   X X   X X X X     ",
"= X X X X X = = X = X X X X = X = X = X = X = X = X = X = X X X X .   X   X X . X   X     X   X X   ",
"= = = = X X X X X X X = = X = X = X = = X = X = X X X X X X = X X X X   X X X   X X X X X O X X X   ",
", - - - - X = O O   X X ; f = - 1 > = = - X X - X X   X X X X X X X   X   X X X     X   . X X   X X ",
", , , - - - O O : X < = = = = f = > - 1 5 - o X @ @ @ o @ o @ o @ o o o - + o o : o o + - o o o o o ",
"- - - - - , , 4 , , , - , l h f 1 5 1 - 6 3 3 0 # # # 0 # # # @ 2 @ # @ # # # 2 2 # # # # # @ @ # @ ",
"X = = = , 4 s 4 k k B k , , 1 9 - : 3 2 t u 0 0 y w w y y q r r y y r r y y y r r y r r y y y r y y ",
"O ; ; < < f j s l , - 5 9 * * 9 9 $ u u u u w A Z Z Z Z Z Z Z q q q q q q Z q q q q q q q q q q q q ",
"O ; < < d g h h s v + . & i i & p $ a S I U S Y Y G G F G F F D J D D D H H H D H H H H H D D D H D ",
"- = 1 f j j h l 1 C T ~ ! W Q Q P W :.>.2.2.=.=.;.-.*.%.%.%.#.%.#.#.#.#.#.#.#.#.$.$.#.#.#.#.#.#.$.#.",
"4 4 k j j b h h ] V R h.$XF.D.D.M.d.G.V.V.H.Z.Z.C.B.m.n.x.x.x.x.v.z.c.c.c.c.b.c.b.b.c.c.c.c.c.z.b.b.",
"4 4 k b b b M M ^ ) % E %X%XF.S.s.y.w.y.d.a.a.a.q.q.1.1.,.,.,.,.<.<.<.<.<.<.<.<.<.<.<.<.<.<.<.<.<.<.",
"B - l @.I.`.(.L.Y.T.O.5.#XoXXXXXA.l.i.9.j.p.t.e.t.p.e.e.e.r.9.g.g.f.f.f.f.f.f.f.f.f.f.f.f.e.f.f.f.f.",
"- > ^ U.I.;X{.)._._.R.^.*XOX X@X.X!.0.0.0.9.9.9.3.3.3.3.7.7.3.7.4.4.3.3.6.4.3.6.6.6.6.4.4.3.3.3.3.4.",
"1 f ( +. .{.;X{.].[.'.[.*X*X|././.!.W.W.W.E.Q.Q.Q.Q.Q.W.W.~.~.~.E.E.Q.W./.E.E.W././.E.E.E.E.E.E.E.E.",
"= = N ] | I...K.J...K.o. .X.} ' { { { { ` [ [ [ ` ` ` [ ' ' ' ' ' _ _ _ _ _ _ _ ` _ _ _ _ _ _ _ _ _ ",
"f = = = x x d m x g x x > d d x d > d > > > > ; < ; > > < < s > > - > > > > < - > > > - > > = > = > ",
"X f v = 1 f v h v v ; z ; < < ; : : : : 7 7 7 7 : 8 + 7 7 3 - - + + + + + + + + + + : + + + o O + + ",
"> > = 1 1 X 5 : = 1 X 5 ; 1 7 : : + O O O % O O % + + . o o @ o + . . . . . . . + . . . . . . . . . ",
"; - - - - - - > - - - 1 = - 1 = : + + - + + + + O o O o o o o o o X o o O o o o X + o o X o o O o o ",
"= = = = - = = - - - - - 1 = 1 - - o O o X O - o o O o = X O O - O o - O o O X - + X O o + O = o X O ",
"= X = = = = = = = = = - - = = = X X X X X X X X X X X X X X X X O X X X X X X X X X X X X X X X X X ",
"= X = X = X X = = = = X = X = X X X X X X X X X X X X X X X X X X   X X X X X X X X X X X X X X X X ",
"X X X X = X = X X X = X X X X X X X     X X X     X X   X   X X X X X   X X   X X X X X X X   X X X ",
"X X X X X X X X X X X   X X X X X   X X X   X X X     X   X   X       X     X                     X ",
"X   X X X X X X X   X X X X X   X X X         X   X                     X   X X     X         X     ",
"                  X   X     X         X               X X   X     X X             X     X X         ",
"X       X                                                                                           ",
"                                                                                                    ",
"    X       X                                                                                       ",
"                                                                                                    ",
"                                                                                                    ",
"                                                                                                    ",
"      X     X       X                                                                               ",
"                            X                                                                       ",
"                                                                                                    ",
"                                                                                                    "
};
