/* XPM */
static char *_f12f54c3bbe4d01c8a69b72b194a72flIFwkcCLOv8nIV69[] = {
/* columns rows colors chars-per-pixel */
"50 50 212 2 ",
"   c #020102",
".  c #080005",
"X  c #05000B",
"o  c #09000C",
"O  c #060011",
"+  c #0B0013",
"@  c #0D001A",
"#  c #110017",
"$  c #12001C",
"%  c #18041D",
"&  c #0E0021",
"*  c #140023",
"=  c #1A0224",
"-  c #1C0C24",
";  c #140028",
":  c #1B002B",
">  c #1D0032",
",  c #22032D",
"<  c #230A2C",
"1  c #230133",
"2  c #290335",
"3  c #250934",
"4  c #2A0D36",
"5  c #27003B",
"6  c #2C023B",
"7  c #240838",
"8  c #2C0C3B",
"9  c #30043F",
"0  c #320E3C",
"q  c #32133E",
"w  c #391B3F",
"e  c #260042",
"r  c #2C0243",
"t  c #2E004A",
"y  c #330244",
"u  c #330C44",
"i  c #33034B",
"p  c #350C4A",
"a  c #3B0C4B",
"s  c #341344",
"d  c #391444",
"f  c #36124A",
"g  c #3C134B",
"h  c #3D1C49",
"j  c #3A0553",
"k  c #3D0D53",
"l  c #3D045A",
"z  c #340150",
"x  c #3E1253",
"c  c #3F1952",
"v  c #400E4D",
"b  c #42174D",
"n  c #420F56",
"m  c #420A5A",
"M  c #421656",
"N  c #431C53",
"B  c #44145C",
"V  c #481B5C",
"C  c #49185C",
"Z  c #422251",
"A  c #492357",
"S  c #4C235D",
"D  c #4C2B5D",
"F  c #47215A",
"G  c #460A63",
"H  c #490F64",
"J  c #500F6B",
"K  c #4C1562",
"L  c #4F1D63",
"P  c #521C64",
"I  c #51166A",
"U  c #541C69",
"Y  c #591D6F",
"T  c #551473",
"R  c #551C72",
"E  c #5A1C74",
"W  c #5D1B7B",
"Q  c #5A1570",
"!  c #611D7E",
"~  c #4E2068",
"^  c #4B2161",
"/  c #522564",
"(  c #532B63",
")  c #592E66",
"_  c #56216F",
"`  c #592569",
"'  c #552C68",
"]  c #5A2B6C",
"[  c #5C2573",
"{  c #5D2A72",
"}  c #5D287A",
"|  c #5B3173",
" . c #612776",
".. c #602F70",
"X. c #66267B",
"o. c #65357B",
"O. c #653A7C",
"+. c #6B3B7D",
"@. c #643774",
"#. c #601C81",
"$. c #642282",
"%. c #652B83",
"&. c #6A2E85",
"*. c #67248C",
"=. c #6A258B",
"-. c #6D2C8B",
";. c #682586",
":. c #70258D",
">. c #742B8A",
",. c #663282",
"<. c #6C3484",
"1. c #6C3C83",
"2. c #6E358A",
"3. c #723586",
"4. c #723B85",
"5. c #72358C",
"6. c #733C8B",
"7. c #6E2992",
"8. c #752C95",
"9. c #742A9A",
"0. c #7C2E9B",
"q. c #762A95",
"w. c #763393",
"e. c #773B91",
"r. c #7B3C95",
"t. c #79339B",
"y. c #7E3B9B",
"u. c #7B3490",
"i. c #7D2DA1",
"p. c #7F3CA2",
"a. c #75418B",
"s. c #7B478F",
"d. c #774292",
"f. c #794390",
"g. c #7B4993",
"h. c #7E419B",
"j. c #833D9D",
"k. c #8527AF",
"l. c #862AAD",
"z. c #8334A4",
"x. c #833BA4",
"c. c #8434AC",
"v. c #8935AC",
"b. c #853BAB",
"n. c #8C3CAC",
"m. c #883BA5",
"M. c #903CAE",
"N. c #8D2FB9",
"B. c #8A2BB4",
"V. c #902EB5",
"C. c #932EBC",
"Z. c #982FBD",
"A. c #8C35B3",
"S. c #863AB1",
"D. c #8D3BB4",
"F. c #8E34BB",
"G. c #8F3BBA",
"H. c #9135B6",
"J. c #923CB5",
"K. c #9334BC",
"L. c #9933BD",
"P. c #953BBB",
"I. c #9A3CBD",
"U. c #83459D",
"Y. c #844A9C",
"T. c #8444A3",
"R. c #8945A7",
"E. c #874DA3",
"W. c #8542A9",
"Q. c #8C44AC",
"!. c #8E49AD",
"~. c #8C4EA3",
"^. c #914AAE",
"/. c #9245AF",
"(. c #8D51A9",
"). c #9658AE",
"_. c #8E41B2",
"`. c #8F4BB1",
"'. c #9343B4",
"]. c #944AB2",
"[. c #994CB5",
"{. c #9543BB",
"}. c #9943BC",
"|. c #9A4ABC",
" X c #9753B7",
".X c #9D51BA",
"XX c #962EC3",
"oX c #9A2EC4",
"OX c #9B2EC9",
"+X c #972FCA",
"@X c #8F33C2",
"#X c #8F3CC0",
"$X c #9532C1",
"%X c #9235C1",
"&X c #9635C2",
"*X c #9632C4",
"=X c #9533C3",
"-X c #9932C2",
";X c #9A31C6",
":X c #9933C4",
">X c #953BC2",
",X c #9A3CC3",
"<X c #9532C9",
"1X c #9B32CA",
"2X c #9A33CA",
"3X c #9C3ACA",
"4X c #A139C4",
"5X c #9540C1",
"6X c #9942C1",
"7X c #9E4AC2",
"8X c #9650C2",
"9X c #A041C3",
/* pixels */
"      < Q.&XF.*.*             + 1 y.H.;X-X-XF.A.l.l.B.c.[ * o X 1 h.P.K.'.} #                       ",
"      @ 0.3X%Xx.,           X O x ].F.;XXX-X%X%XK.K.&XD.h., X + * <.,XC.'.m +                       ",
"      @ 0.:XL.m.3 X           O l {.K.2X;X;X2XoX-X:X:XG.e.1 o X @ <.P.%XJ.m +         .             ",
"+ + @ > v.L.}.r.=           X * T 5X%X<X*X;X2X+XoX-XK._.a.% X X + (  X_.T.u + . + + o X         o + ",
"$.$.$.t.P.J. ., X . X   . o 1 X.v.3X=X*X&X=X*X2X;XK._.U * o       o , 3 : @ O < { X.[ 8 X     X L $.",
"P.>XP.>X&Xn.5 + .     X   o C |.K.XX-X;X&X=X*XXX;XP.w.: @           . X   X O N [.J.Q.~ O     * R.I.",
"K.K.=XXX=Xb.1 +           + I }.K.-X1XoXXXXX;XoXXXP.5.: X           .   X X + S }.V.{.E o   . : Q.=X",
"'.{.'.I.:XA.i + .       X @ #.I.J.}.P.{.{.{.}.{.'.^.+.$ O O O + + + + @ + + + d ].J.^.P o     % U.{.",
"u f u Y P.K.8.M o     X : [ J.P.x.K a s s f p a u q % o @ 8 _ E E E W R M * X X 4 d 0 $ .   . o 3 u ",
"X X o * z.3XP.h.=     + U ].K.I.R * + + X X + + X .   . @ a.'.P.P.P.P.'.E.f X   . o . .       o X X ",
"    . % i.=X%Xx.3 X . + E P.C.J.L # o   X   X X X X   . * 3.J.K.K.K.&XG.W.a @   .                   ",
"    o : c.3X<XS.r + o + P .X}.^.A X .         X O + o o # 1.7XK.=X-XK.K.D.H * X       X O O + X     ",
"  + 2 ! G.<X<X#X7.p + X = N S A % . .       O 8 M k , + + 2 -.P.-X;XK.K.P.9.k $     X @ p n x , o   ",
"  # r.P.&X<X<XF.D.U.4 X X O O X X           * g.Q.Q.@.% X + > z.&X*X-XL.-X6Xh.f o   X 4 U.Q.R.{ o   ",
"  % j.K.=X*XZ.-XL.n.q X X X X o           o 1 U.A.A.4.* X o * &.>X*X-XZ.;XK.b.B O   o 0 ].H.P.&.@   ",
"o * n.&XP.P.J.P.L.J.a # X   X             X : E.J.P.w.: O X @ 1.|.K.-X-X:XK.].x + X + y }.K.{.2.@   ",
"> R P.K.x.%.o.e.}.H.;.5 +   .               @ F W.D.z.J : @ + 8 r.{.Z.;XL.n...= X o 5 -.>XF.5.s X   ",
"y.'.K.K.j * @ : z.>XP.y.4 .                   @ i '.J.'.O.$ + + > x.&X;XJ.Q # o X < T.D.,X9.: +     ",
"I.V.:Xv.1 + + & 7.3XK.n.g o X               X O > x.H.n.d.1 o + * %.>X%XJ.m @ X X s '.N.>X#.@ X     ",
"}.P.J.j.: o o * 9.3XK.'.g o X   X X           X : Y.'.].f.: X X @ O.8XD.R.x @ X X s  XJ.'. .+       ",
"[ 1.6.( o o # j S.F.Q.2.= X + = 1 : + .       X @ D 4.+.D @ X X X q 1.<.O.: O X X % | 6.1.s X       ",
"@ @ @ + . o ` ^.P.G.R * X o s s.r.f.w o         X @ $ @ + X     . o @ @ + + X X   X @ @ @ + .       ",
"X   X X   + >.I.K.D.p @ X O K [.A.].A o .         X o X                 . .           .             ",
". X X X   + u.I.K.Q.q X + @ T I.F.n.( + .                                                   X X X X ",
"% % * @   X S Y.U.1.- . @ : q.P.D.T.h o             X                                     + @ * * * ",
"3.3.<.S +   @ : : $ . X 6 y.A.>X8.e @ .               .                                 X # @.3.3.3.",
"J.J.{.y.= X X X X X   o _ |.C.P.R & +                                                   X 4 !.P.P.P.",
":X=X&Xz.: + X X X   . + U ].K.D.^ + X           X X X o .                 .     .       . 8 '.K.=X=X",
";X*X3Xv.i $ + + @ +   X N ~.R.~.h o         X O + + + + + + + X   . X . o o O X       X . * E.{.&X-X",
"2XXX=XP.t.[ ] ` { S @ X @ 6 6 2 o .       X @ Z ] { { { ] ( Z + X   X < ) ) D =         o + > $.P.-X",
"=X:X;XK.K.P.P.J.J.Q.s X o + o o .         o 1 Y.Q.J.P.J.'.^.f.1 X X + / [.J.R.x X         o + > J.:X",
"K.K.K.=X;X;XC.:XXXD.r @ X             .   o 1 U.A.=X;XoX=XA.r.1 + o # Y 9XC.P.G @           X 1 D.;X",
"{.P.6X{.K.-X:XXX-XJ.B @ X       X X + o X X * g.{.K.-X-XK.{.d.: X o = >.P.K.,XT $ X         @ y P.<X",
"E l l W I.-XXX-X*XF.y.V +     o # Z / S - X + 1 *.6X&XK.J.;.r @ + , X.M.K.&XK.z./ * .     + V t.I.%X",
"+ + + * z.3XXX2X<X*XK.Q.d o . o p (.J./.( + o + e n.K.>Xz.r + + @ o.|.K.2X2X&XD.!./ o   . 2 !.P.K.l.",
". .   + w.K.:X2X<X*XXXD.u o o + x Q.V.J.` + . + 1 x.K.I.y.1 + o * &.>X+X2XXX%XK.P.I # . o 8 '.K.K.l.",
"+ X   # 3.7XK.XX1X;X3XQ.q X X O u ).'.].' + o + 5 Q.H.K.x.e # + : -.,X*X=X:X;X=XP.! $ X . , `.>XK.k.",
"S , o o 2 -.I.;XoX&Xz.K # X   X $ x U P 3 + + 4 %.J.L.K.D.%.a v Y n.&X;X-X=X-X-X*Xz.B % X + k x.,XK.",
"'.&.+ X X ; t.>X=XJ.n # X       X + + + . o : g.D.K.L.:X@XG.'.'.I.K.-XXXK.-X:X-X-XA.^.V O o + 5 J.=X",
"K.8.$     @ -.>X%Xb.0 .               .   + 5 Q.P.=X-XC.2X<X-XL.-X-X-X=X-X=XXX;X-XK.P.E @   . : n.=X",
"{.e.@     @ 5.7X>X!.8 .               X   @ e _.>X-X,X,X2X2X-X-X-X&X,X3X3X2XXXoXK.K.I.W $ X . * !.,X",
",.x +     + a &.-.[ * .       . o - 3 7 3 5 #.G.A.z.:.:.c.,XC.:XK.v.8.=.i.K.2X2X:XK.K.z.p $ X + U =.",
"+ + .       X + @ + X         o 6 Y.x.b.Q.n.P.P.r.6 % * > W.>X&XD.G * * : &.6XC.;X-X-XP.W.M + X + @ ",
"    . .                       o k /.K.-XK.K.:XJ.<.# o o * 2.P.%Xb.t + o + U }.=XXX1XoXC.'.} @       ",
"  . . .     .                 X k .XV.L.L.-XXX5X1.# o o + a.,X=Xb.i + . $ U I.oXOXOXoXK.{.} + .     ",
"    # , , # X                 X : 2.'.K.4XL.%Xx.c + X . o b n.I.J.T 1 , y 5.,X+XOXoX;XJ.w.f + X     ",
"  O ,.x.m.<.$                   o * R 6XN.P.t.e @ .     . + 1 p.H.K.n.z.n.P.&X*X<X;X>X8.* X .       ",
"  * p.&X&Xm.,                   . @ z {.K.P.&.* X         o & 2.,XXX-X:X*X=X*X*X2X=XP.E o           ",
"  $ x.&X&Xz.1 .                   + j {.F.P.&.* X         . $ <.,XoXXX-X=X*X*X:X2X=XP.E +           ",
"  @ 8.3X3Xn.s X                   + I {.K.A.6.1 X         . @ [ 6X;X;X-X;X;X;X2X2X&XP.I +           "
};
